<?xml version="1.0" encoding="UTF-8"?>
<svg width="276px" height="91px" viewBox="0 0 276 91" version="1.1" xmlns="http://www.w3.org/2000/svg" xmlns:xlink="http://www.w3.org/1999/xlink">
    <!-- Generator: Sketch 3.6.1 (26313) - http://www.bohemiancoding.com/sketch -->
    <title>Group 3</title>
    <desc>Created with Sketch.</desc>
    <defs></defs>
    <g id="Page-1" stroke="none" stroke-width="1" fill="none" fill-rule="evenodd">
        <g id="Group-3" transform="translate(0.000000, -12.000000)">
            <g id="Group-2" transform="translate(0.000000, 15.987049)">
                <text id="AGRi" font-family="Copperplate" font-size="109.010703" font-weight="normal" fill="#4A4A4A">
                    <tspan x="5" y="86">AGRi</tspan>
                </text>
                <g id="Group-4" transform="translate(0.025313, -0.000000)">
                    <path d="M9.61265578,38.2140096 C9.05617713,38.2140096 8.49969848,38.0007807 8.07597617,37.5768197 C-2.09485645,27.4002586 -2.09485645,10.8428103 8.07597617,0.666249138 C8.92591621,-0.181922467 10.2996449,-0.181922467 11.1495849,0.666249138 C11.999525,1.51666789 11.999525,2.89341744 11.1495849,3.74158904 C2.67439015,12.2238045 2.67439015,26.0215116 11.1495849,34.5014798 C11.999525,35.3518986 11.999525,36.726401 11.1495849,37.5768197 C10.7256131,38.0007807 10.1691344,38.2140096 9.61265578,38.2140096" id="Shape" fill="#0B4268"></path>
                    <path d="M70.2034616,38.2140096 C69.646983,38.2140096 69.0905043,38.0007807 68.6665325,37.5768197 C67.8165924,36.726401 67.8165924,35.3518986 68.6665325,34.5014798 C77.1417272,26.0215116 77.1417272,12.2238045 68.6665325,3.74158904 C67.8165924,2.89341744 67.8165924,1.51666789 68.6665325,0.666249138 C69.5164725,-0.181922467 70.8902012,-0.181922467 71.7401412,0.666249138 C81.9109738,10.8428103 81.9109738,27.4002586 71.7401412,37.5768197 C71.3164189,38.0007807 70.7599402,38.2140096 70.2034616,38.2140096" id="Shape" fill="#0B4268"></path>
                    <path d="M18.1650608,32.0114761 C17.6085822,32.0114761 17.0521035,31.7982472 16.6281317,31.3742862 C9.84832521,24.5906612 9.84832521,13.5506978 16.6281317,6.76732238 C17.4758258,5.91690363 18.8518004,5.91690363 19.7017404,6.76732238 C20.5516805,7.61549398 20.5516805,8.99224353 19.7017404,9.84266228 C14.6175718,14.9296945 14.6175718,23.209667 19.7017404,28.2989463 C20.5516805,29.1493651 20.5516805,30.5238675 19.7017404,31.3742862 C19.2780181,31.7984969 18.7215395,32.0114761 18.1650608,32.0114761" id="Shape" fill="#0B4268"></path>
                    <path d="M61.1253865,32.0114761 C60.5689079,32.0114761 60.0124292,31.7982472 59.5884574,31.3742862 C58.7385173,30.5238675 58.7385173,29.1493651 59.5884574,28.2989463 C64.672626,23.209667 64.672626,14.9296945 59.5884574,9.84266228 C58.7385173,8.99224353 58.7385173,7.61549398 59.5884574,6.76732238 C60.4383974,5.91690363 61.8121261,5.91690363 62.6620661,6.76732238 C69.4418726,13.5509474 69.4418726,24.5909108 62.6620661,31.3742862 C62.2383438,31.7984969 61.6818652,32.0114761 61.1253865,32.0114761" id="Shape" fill="#0B4268"></path>
                    <path d="M55.0876982,18.3042075 C55.0876982,26.7125169 48.2754513,33.5286007 39.8718751,33.5286007 C31.4682989,33.5286007 24.656052,26.7125169 24.656052,18.3042075 C24.656052,9.89589817 31.4682989,3.07981437 39.8718751,3.07981437 C48.2754513,3.07981437 55.0876982,9.89614785 55.0876982,18.3042075" id="Shape" fill="#4A4A4A"></path>
                </g>
            </g>
            <g id="Group" transform="translate(259.538816, 29.538816) rotate(-315.000000) translate(-259.538816, -29.538816) translate(242.038816, 5.264622)">
                <path d="M17.2810907,0.984077728 L17.2810907,0.467660474 L17.2810907,0.467660474 L17.2810907,0.984077728 C12.1569976,13.1198832 -0.268927896,15.8310738 0.62778838,30.1616526 C1.14019768,38.553433 8.31392789,43.3302926 17.2810907,48.1071522 L17.2810907,48.1071522 L17.2810907,48.1071522 L17.2810907,48.1071522 C26.2482534,43.3302926 33.4219836,38.4243287 33.9343929,30.1616526 C34.8311092,15.8310738 22.4051837,13.1198832 17.2810907,0.984077728 L17.2810907,0.984077728 Z" id="Shape" fill="#239B02"></path>
                <path d="M17.2810907,48.2362565 L17.2810907,48.2362565 L17.2810907,48.2362565 L17.2810907,48.2362565 C26.2482534,43.3302926 33.4219836,38.553433 33.9343929,30.1616526 C34.8311092,15.7019695 22.4051837,12.9907789 17.2810907,0.984077728 L17.2810907,0.467660474 L17.2810907,0.467660474 L17.2810907,0.467660474" id="Shape" fill="#34B515"></path>
                <path d="M17.9216023,42.4265624 C17.9216023,42.8138754 17.6653976,43.072084 17.2810907,43.072084 L17.2810907,43.072084 C16.8967837,43.072084 16.640579,42.8138754 16.640579,42.4265624 L16.640579,11.4415271 C16.640579,11.0542142 16.8967837,10.7960056 17.2810907,10.7960056 L17.2810907,10.7960056 C17.6653976,10.7960056 17.9216023,11.0542142 17.9216023,11.4415271 L17.9216023,42.4265624 L17.9216023,42.4265624 Z" id="Shape" fill="#FFC114"></path>
                <path d="M16.0000674,29.2579224 L10.6197697,24.0937499 C10.3635651,23.8355413 9.8511558,23.8355413 9.59495115,24.0937499 C9.3387465,24.3519585 9.59495115,24.7392715 9.8511558,24.9974801 L16.1281697,31.0653828 L16.1281697,29.2579224 L16.0000674,29.2579224 L16.0000674,29.2579224 Z" id="Shape" fill="#FFC114"></path>
                <path d="M16.9654212,27.6612297 L22.3457188,22.4970571 C22.6019235,22.2388485 23.1143328,22.2388485 23.3705374,22.4970571 C23.6267421,22.7552658 23.3705374,23.1425787 23.1143328,23.4007873 L16.9654212,29.4686901 L16.9654212,27.6612297 L16.9654212,27.6612297 Z" id="Shape" fill="#FFC114"></path>
            </g>
        </g>
    </g>
</svg>