<?xml version="1.0" encoding="UTF-8"?>
<svg width="496px" height="422px" viewBox="0 0 496 422" version="1.1" xmlns="http://www.w3.org/2000/svg" xmlns:xlink="http://www.w3.org/1999/xlink">
    <!-- Generator: Sketch 3.6.1 (26313) - http://www.bohemiancoding.com/sketch -->
    <title>server</title>
    <desc>Created with Sketch.</desc>
    <defs></defs>
    <g id="Page-1" stroke="none" stroke-width="1" fill="none" fill-rule="evenodd">
        <g id="server">
            <g id="Group">
                <circle id="Oval" fill="#F9DD53" cx="60.1179069" cy="209.444948" r="36.1762726"></circle>
                <text id="農業感測資料" font-family="PingFangTC-Semibold, PingFang TC" font-size="20" font-weight="500" fill="#9B9B9B">
                    <tspan x="0" y="217.249027">農業感測資料</tspan>
                </text>
                <circle id="Oval" fill="#F9DD53" cx="435.99378" cy="209.444948" r="36.1762726"></circle>
                <text id="農業產銷資料" font-family="PingFangTC-Semibold, PingFang TC" font-size="20" font-weight="500" fill="#9B9B9B">
                    <tspan x="376.966542" y="215.315175">農業產銷資料</tspan>
                </text>
                <circle id="Oval" fill="#F9DD53" cx="115.163918" cy="336.336874" r="36.1762726"></circle>
                <text id="農業相關單位" font-family="PingFangTC-Semibold, PingFang TC" font-size="20" font-weight="500" fill="#9B9B9B">
                    <tspan x="55.0972763" y="343.856031">農業相關單位</tspan>
                </text>
                <path d="M284.227994,385.378763 C284.227994,405.359334 268.039506,421.558127 248.058935,421.558127 C245.183958,421.558127 242.401723,421.228381 239.722533,420.589497 C233.313087,419.085029 227.563134,415.870001 222.967294,411.449339 C216.13536,404.864715 211.879571,395.621511 211.879571,385.378763 C211.879571,365.398191 228.078363,349.209703 248.058935,349.209703 C253.468837,349.209703 258.600515,350.39473 263.20666,352.527777 C268.008593,354.74326 272.233468,357.978897 275.623674,361.956463 C280.992357,368.262863 284.227994,376.444696 284.227994,385.378763 L284.227994,385.378763 Z" id="Shape" fill="#F9DD53"></path>
                <text id="農業相關研究資料" font-family="PingFangTC-Semibold, PingFang TC" font-size="20" font-weight="500" fill="#9B9B9B">
                    <tspan x="168.894942" y="393.181051">農業相關研究資料</tspan>
                </text>
                <path d="M406.522694,359.917982 C393.229792,373.210884 372.16724,373.994032 357.957231,362.267425 C357.060733,361.5358 356.205453,360.752653 355.370782,359.917982 C341.243209,345.790409 341.243209,322.883338 355.370782,308.755765 C362.511853,301.614695 371.899321,298.080225 381.26618,298.162662 C390.416643,298.245099 399.536192,301.779568 406.522694,308.755765 C420.650267,322.883338 420.650267,345.790409 406.522694,359.917982 L406.522694,359.917982 Z" id="Shape" fill="#F9DD53"></path>
                <text id="農業資訊業者" font-family="PingFangTC-Semibold, PingFang TC" font-size="20" font-weight="500" fill="#9B9B9B">
                    <tspan x="329.163424" y="342.657588">農業資訊業者</tspan>
                    <tspan x="349.163424" y="370.657588">應用資料</tspan>
                </text>
                <g id="cloud" transform="translate(75.000000, 42.000000)">
                    <path d="M73.8836097,27.4432331 C73.7177296,14.1259398 63.5957908,3.38345865 51.1190051,3.38345865 C42.7664541,3.38345865 35.4872449,8.20827068 31.5223852,15.381203 C30.1530612,14.9041353 28.6926658,14.6368421 27.1737245,14.6368421 C20.4637117,14.6368421 14.8628189,19.6849624 13.4869898,26.424812 C7.78201531,29.3515038 3.81065051,35.5804511 3.81065051,42.7703008 C3.81065051,52.7413534 11.4313776,60.9022556 20.7499362,60.9022556 L55.7961735,60.9022556 C55.9945791,60.9022556 56.183227,60.8785714 56.3816327,60.8718045 C56.5767857,60.8785714 56.7686862,60.9022556 56.9670918,60.9022556 L70.9855867,60.9022556 C79.6503827,60.9022556 86.747449,53.306391 86.747449,44.0221805 C86.747449,35.8003759 81.1790816,28.9150376 73.8836097,27.4432331 L73.8836097,27.4432331 Z" id="Shape" fill="#88C5FC"></path>
                    <path d="M70.9758291,64.2857143 L56.9573342,64.2857143 C56.7524235,64.2857143 56.5475128,64.2721805 56.3458546,64.2586466 C56.1929847,64.2721805 55.9945791,64.2857143 55.7896684,64.2857143 L20.7466837,64.2857143 C9.61320153,64.2857143 0.554846939,54.6327068 0.554846939,42.7736842 C0.554846939,35.1203008 4.48718112,27.981203 10.6897959,24.1545113 C12.9210459,16.5924812 19.621301,11.2533835 27.1672194,11.2533835 C28.1299745,11.2533835 29.0927296,11.3379699 30.0424745,11.5105263 C34.9082908,4.35112782 42.7729592,0 51.1190051,0 C64.4609694,0 75.591199,10.9116541 76.9897959,24.8075188 C84.6593112,27.5345865 90,35.225188 90,44.0221805 C90,55.1943609 81.4653061,64.2857143 70.9758291,64.2857143 L70.9758291,64.2857143 Z M56.2190051,57.4883459 L56.8239796,57.5086466 L70.9758291,57.518797 C77.8777423,57.518797 83.494898,51.462406 83.494898,44.0221805 C83.494898,37.5360902 79.191773,31.9635338 73.2623724,30.762406 L70.6635842,30.2379699 L70.6278061,27.487218 C70.4879464,16.0612782 61.7385842,6.76691729 51.1190051,6.76691729 C44.1748087,6.76691729 37.9038903,10.6206767 34.3423469,17.0695489 L33.0120536,19.475188 L30.4848214,18.5921053 C29.4049745,18.2131579 28.2893495,18.0203008 27.1704719,18.0203008 C22.1615434,18.0203008 17.7445791,21.8537594 16.6679847,27.1285714 L16.3362245,28.7357143 L14.9213648,29.4597744 C10.1433673,31.912782 7.05994898,37.1368421 7.05994898,42.7736842 C7.05994898,50.9041353 13.2007653,57.518797 20.7466837,57.518797 L56.2190051,57.4883459 L56.2190051,57.4883459 Z" id="Shape" fill="#B1D3EF"></path>
                </g>
                <g id="cloud" transform="translate(297.000000, 31.571429)">
                    <path d="M98.5114796,36.5909774 C98.2903061,18.8345865 84.7943878,4.5112782 68.1586735,4.5112782 C57.0219388,4.5112782 47.3163265,10.9443609 42.0298469,20.5082707 C40.2040816,19.8721805 38.2568878,19.5157895 36.2316327,19.5157895 C27.284949,19.5157895 19.8170918,26.2466165 17.9826531,35.2330827 C10.3760204,39.1353383 5.08086735,47.4406015 5.08086735,57.0270677 C5.08086735,70.3218045 15.2418367,81.2030075 27.6665816,81.2030075 L74.394898,81.2030075 C74.6594388,81.2030075 74.9109694,81.1714286 75.1755102,81.162406 C75.4357143,81.1714286 75.6915816,81.2030075 75.9561224,81.2030075 L94.647449,81.2030075 C106.20051,81.2030075 115.663265,71.075188 115.663265,58.6962406 C115.663265,47.7338346 108.238776,38.5533835 98.5114796,36.5909774 L98.5114796,36.5909774 Z" id="Shape" fill="#88C5FC"></path>
                    <path d="M94.6344388,85.7142857 L75.9431122,85.7142857 C75.669898,85.7142857 75.3966837,85.6962406 75.1278061,85.6781955 C74.9239796,85.6962406 74.6594388,85.7142857 74.3862245,85.7142857 L27.6622449,85.7142857 C12.817602,85.7142857 0.739795918,72.843609 0.739795918,57.0315789 C0.739795918,46.8270677 5.98290816,37.3082707 14.2530612,32.206015 C17.2280612,22.1233083 26.1617347,15.0045113 36.2229592,15.0045113 C37.5066327,15.0045113 38.7903061,15.1172932 40.0566327,15.3473684 C46.5443878,5.80150376 57.0306122,3.19744231e-14 68.1586735,3.19744231e-14 C85.9479592,3.19744231e-14 100.788265,14.5488722 102.653061,33.0766917 C112.879082,36.712782 120,46.9669173 120,58.6962406 C120,73.5924812 108.620408,85.7142857 94.6344388,85.7142857 L94.6344388,85.7142857 Z M74.9586735,76.6511278 L75.7653061,76.6781955 L94.6344388,76.6917293 C103.83699,76.6917293 111.326531,68.6165414 111.326531,58.6962406 C111.326531,50.0481203 105.589031,42.6180451 97.6831633,41.0165414 L94.2181122,40.3172932 L94.1704082,36.6496241 C93.9839286,21.4150376 82.3181122,9.02255639 68.1586735,9.02255639 C58.8997449,9.02255639 50.5385204,14.1609023 45.7897959,22.7593985 L44.0160714,25.9669173 L40.6464286,24.7894737 C39.2066327,24.2842105 37.7191327,24.0270677 36.2272959,24.0270677 C29.5487245,24.0270677 23.6594388,29.1383459 22.2239796,36.1714286 L21.7816327,38.3142857 L19.8951531,39.2796992 C13.5244898,42.5503759 9.41326531,49.5157895 9.41326531,57.0315789 C9.41326531,67.8721805 17.6010204,76.6917293 27.6622449,76.6917293 L74.9586735,76.6511278 L74.9586735,76.6511278 Z" id="Shape" fill="#B1D3EF"></path>
                </g>
                <g id="cloud" transform="translate(171.000000, 0.058824)">
                    <path d="M83.9607143,5.57275542 C70.2035714,5.57275542 58.2142857,13.5195046 51.6839286,25.3337461 C49.4285714,24.5479876 47.0232143,24.1077399 44.5214286,24.1077399 C33.4696429,24.1077399 24.2446429,32.422291 21.9785714,43.5232198 C12.5821429,48.3436533 6.04107143,58.603096 6.04107143,70.4452012 C6.04107143,86.8681115 18.5928571,100.309598 33.9410714,100.309598 L91.6642857,100.309598 C91.9910714,100.309598 92.3017857,100.270588 92.6285714,100.259443 C92.95,100.270588 93.2660714,100.309598 93.5928571,100.309598 L116.682143,100.309598 C130.953571,100.309598 142.642857,87.7987616 142.642857,72.5071207 C142.642857,58.9653251 133.471429,47.6247678 121.455357,45.2006192 C121.182143,23.2662539 104.510714,5.57275542 83.9607143,5.57275542 Z" id="Shape" fill="#88C5FC"></path>
                    <path d="M116.666071,105.882353 L93.5767857,105.882353 C93.2392857,105.882353 92.9017857,105.860062 92.5696429,105.837771 C92.3178571,105.860062 91.9910714,105.882353 91.6535714,105.882353 L33.9357143,105.882353 C15.5982143,105.882353 0.678571429,89.9832817 0.678571429,70.450774 C0.678571429,57.8452012 7.15535714,46.0866873 17.3714286,39.7839009 C21.0464286,27.3287926 32.0821429,18.5349845 44.5107143,18.5349845 C46.0964286,18.5349845 47.6821429,18.6743034 49.2464286,18.9585139 C57.2607143,7.16656347 70.2142857,0 83.9607143,0 C105.935714,0 124.267857,17.9721362 126.571429,40.8594427 C139.203571,45.3510836 148,58.0179567 148,72.5071207 C148,90.9083591 133.942857,105.882353 116.666071,105.882353 L116.666071,105.882353 Z M92.3607143,94.6866873 L93.3571429,94.7201238 L116.666071,94.7368421 C128.033929,94.7368421 137.285714,84.7616099 137.285714,72.5071207 C137.285714,61.8241486 130.198214,52.6458204 120.432143,50.6674923 L116.151786,49.8037152 L116.092857,45.273065 C115.8625,26.45387 101.451786,11.1455108 83.9607143,11.1455108 C72.5232143,11.1455108 62.1946429,17.4928793 56.3285714,28.1145511 L54.1375,32.0767802 L49.975,30.622291 C48.1964286,29.9981424 46.3589286,29.6804954 44.5160714,29.6804954 C36.2660714,29.6804954 28.9910714,35.9944272 27.2178571,44.6823529 L26.6714286,47.3294118 L24.3410714,48.5219814 C16.4714286,52.5622291 11.3928571,61.1665635 11.3928571,70.450774 C11.3928571,83.8421053 21.5071429,94.7368421 33.9357143,94.7368421 L92.3607143,94.6866873 L92.3607143,94.6866873 Z" id="Shape" fill="#B1D3EF"></path>
                </g>
                <g transform="translate(135.591440, 115.326848)" fill="#E6E6E6">
                    <rect id="Rectangle-path" x="104.735972" y="163.505697" width="15.456863" height="52.5152073"></rect>
                    <rect id="Rectangle-path" transform="translate(182.580824, 164.234817) rotate(225.000000) translate(-182.580824, -164.234817) " x="156.323472" y="156.506459" width="52.5147037" height="15.4567148"></rect>
                    <rect id="Rectangle-path" x="0.561599356" y="86.3896686" width="52.5152073" height="15.456863"></rect>
                    <rect id="Rectangle-path" x="177" y="86" width="52.5152073" height="15.456863"></rect>
                    <rect id="Rectangle-path" transform="translate(42.347325, 164.234806) rotate(225.000000) translate(-42.347325, -164.234806) " x="34.6189681" y="137.977455" width="15.4567148" height="52.5147037"></rect>
                    <g id="Group-2" transform="translate(106.334630, 0.000000)" stroke-width="2" stroke="#E6E6E6">
                        <polygon id="Triangle-1" points="6.34000015 8.52651283e-14 12.6800003 8.83757597 0 8.83757597 "></polygon>
                        <polygon id="Triangle-1" points="6.34000015 13.837576 12.6800003 22.6751519 0 22.6751519 "></polygon>
                        <polygon id="Triangle-1" points="6.34000015 29.155642 12.6800003 37.993218 0 37.993218 "></polygon>
                    </g>
                </g>
                <g id="database" transform="translate(211.454448, 169.721723)">
                    <path d="M76.4247242,12.5418362 L76.4247242,12.5418362 C75.2717684,5.54662707 58.8007459,0 38.6421575,0 C18.4835691,0 2.01254665,5.54662707 0.859590851,12.5418362 L0.859590851,12.5418362 L0.78861546,12.5418362 L0.78861546,13.325701 L0.78861546,31.3545906 L0.78861546,32.1384553 L0.78861546,32.9223201 L0.78861546,50.1673449 L0.78861546,50.9512097 L0.78861546,51.7350744 L0.78861546,70.5478288 L0.859590851,70.5478288 C2.01254665,77.5414702 18.4851464,83.089665 38.6421575,83.089665 C58.7991687,83.089665 75.2717684,77.5414702 76.4247242,70.5478288 L76.4956996,70.5478288 L76.4956996,51.7350744 L76.4956996,50.9512097 L76.4956996,50.1673449 L76.4956996,32.9223201 L76.4956996,32.1384553 L76.4956996,31.3545906 L76.4956996,13.325701 L76.4956996,12.5418362 L76.4247242,12.5418362 L76.4247242,12.5418362 Z" id="Shape" fill="#424A60"></path>
                    <g id="Group" transform="translate(0.000000, 50.167345)" fill="#424A60">
                        <path d="M38.6421575,14.1095658 C17.7359617,14.1095658 0.78861546,8.14278717 0.78861546,0.783864764 L0.78861546,20.3804839 L0.859590851,20.3804839 C2.01254665,27.3741253 18.4851464,32.9223201 38.6421575,32.9223201 C58.7991687,32.9223201 75.2717684,27.3741253 76.4247242,20.3804839 L76.4956996,20.3804839 L76.4956996,0.783864764 C76.4956996,8.14278717 59.5483534,14.1095658 38.6421575,14.1095658 L38.6421575,14.1095658 Z" id="Shape"></path>
                        <path id="Shape" d="M0.78861546,0 L0.78861546,0.783864764 C0.78861546,0.520486203 0.80661546,0.260243102 0.83361546,0 L0.78861546,0 L0.78861546,0 Z"></path>
                        <path id="Shape" d="M76.4247242,0 C76.4517242,0.260243102 76.4697242,0.520486203 76.4697242,0.783864764 L76.4697242,0 L76.4247242,0 L76.4247242,0 Z"></path>
                    </g>
                    <g id="Group" transform="translate(0.000000, 31.354591)" fill="#556080">
                        <path d="M38.6421575,14.1095658 C17.7359617,14.1095658 0.78861546,8.14278717 0.78861546,0.783864764 L0.78861546,20.3804839 L0.859590851,20.3804839 C2.01254665,27.3741253 18.4851464,32.9223201 38.6421575,32.9223201 C58.7991687,32.9223201 75.2717684,27.3741253 76.4247242,20.3804839 L76.4956996,20.3804839 L76.4956996,0.783864764 C76.4956996,8.14278717 59.5483534,14.1095658 38.6421575,14.1095658 L38.6421575,14.1095658 Z" id="Shape"></path>
                        <path id="Shape" d="M0.78861546,0 L0.78861546,0.783864764 C0.78861546,0.520486203 0.80661546,0.260243102 0.83361546,0 L0.78861546,0 L0.78861546,0 Z"></path>
                        <path id="Shape" d="M76.4247242,0 C76.4517242,0.260243102 76.4697242,0.520486203 76.4697242,0.783864764 L76.4697242,0 L76.4247242,0 L76.4247242,0 Z"></path>
                    </g>
                    <path d="M38.6421575,26.651402 C42.9859558,26.651402 47.158866,26.3938339 51.0443723,25.9197151 C65.8591213,24.111984 76.4956996,19.1561215 76.4956996,13.325701 C76.4956996,5.96611955 59.5480915,0 38.6421575,0 C17.7362235,0 0.78861546,5.96611955 0.78861546,13.325701 C0.78861546,20.6852824 17.7362235,26.651402 38.6421575,26.651402 Z" id="Oval" fill="#7FABDA"></path>
                    <g id="Group" transform="translate(0.000000, 12.541836)" fill="#7383BF">
                        <path d="M38.6421575,14.1095658 C17.7359617,14.1095658 0.78861546,8.14278717 0.78861546,0.783864764 L0.78861546,20.3804839 L0.859590851,20.3804839 C2.01254665,27.3741253 18.4851464,32.9223201 38.6421575,32.9223201 C58.7991687,32.9223201 75.2717684,27.3741253 76.4247242,20.3804839 L76.4956996,20.3804839 L76.4956996,0.783864764 C76.4956996,8.14278717 59.5483534,14.1095658 38.6421575,14.1095658 L38.6421575,14.1095658 Z" id="Shape"></path>
                        <path id="Shape" d="M0.78861546,0 L0.78861546,0.783864764 C0.78861546,0.520486203 0.80661546,0.260243102 0.83361546,0 L0.78861546,0 L0.78861546,0 Z"></path>
                        <path id="Shape" d="M76.4247242,0 C76.4517242,0.260243102 76.4697242,0.520486203 76.4697242,0.783864764 L76.4697242,0 L76.4247242,0 L76.4247242,0 Z"></path>
                    </g>
                </g>
                <path d="M294.859224,156.38669 L294.859224,251.260915 L245.490004,251.260915 L294.859224,156.38669 Z" id="Shape" fill="#F2F2F2" opacity="0.23"></path>
                <path d="M242.19254,167.721723 L210.454448,228.714504 L210.454448,167.721723 L242.19254,167.721723 Z" id="Shape" fill="#F2F2F2" opacity="0.23"></path>
            </g>
        </g>
    </g>
</svg>