<?xml version="1.0" encoding="UTF-8"?>
<svg width="300px" height="212px" viewBox="0 0 300 212" version="1.1" xmlns="http://www.w3.org/2000/svg" xmlns:xlink="http://www.w3.org/1999/xlink">
    <!-- Generator: Sketch 3.6.1 (26313) - http://www.bohemiancoding.com/sketch -->
    <title>code</title>
    <desc>Created with Sketch.</desc>
    <defs></defs>
    <g id="Page-1" stroke="none" stroke-width="1" fill="none" fill-rule="evenodd">
        <g id="code">
            <g id="Group">
                <path d="M288.426724,7.95905172 L17.1336207,7.95905172 C10.9913793,7.95905172 6.01293103,12.9375 6.01293103,19.0797414 L6.01293103,35.987069 L6.01293103,200.295259 C6.01293103,206.4375 10.9913793,211.415948 17.1336207,211.415948 L288.426724,211.415948 C294.568966,211.415948 299.547414,206.4375 299.547414,200.295259 L299.547414,35.987069 L299.547414,19.0797414 C299.546767,12.9375 294.568966,7.95905172 288.426724,7.95905172 L288.426724,7.95905172 Z" id="Shape" fill="#CCCCCC"></path>
                <path d="M293.534483,28.2290948 L293.534483,192.537284 C293.534483,198.679526 288.556034,203.657974 282.413793,203.657974 L11.1206897,203.657974 C4.97844828,203.657974 0,198.679526 0,192.537284 L0,28.2290948 L293.534483,28.2290948 L293.534483,28.2290948 Z" id="Shape" fill="#F2F2F2"></path>
                <path d="M293.534483,11.3217672 L293.534483,28.2290948 L0,28.2290948 L0,11.3217672 C0,5.17952586 4.97844828,0.201077586 11.1206897,0.201077586 L282.413793,0.201077586 C288.556034,0.201077586 293.534483,5.17952586 293.534483,11.3217672 L293.534483,11.3217672 Z" id="Shape" fill="#88C5FC"></path>
                <path d="M168.101509,19.0642241 L46.5497845,19.0642241 C43.8717672,19.0642241 41.7006466,16.8931034 41.7006466,14.2150862 C41.7006466,11.537069 43.8717672,9.36594828 46.5497845,9.36594828 L168.101509,9.36594828 C170.779526,9.36594828 172.950647,11.537069 172.950647,14.2150862 C172.950647,16.8931034 170.779526,19.0642241 168.101509,19.0642241 L168.101509,19.0642241 Z" id="Shape" fill="#F2F2F2"></path>
                <path d="M30.387931,19.0609914 C29.1077586,19.0609914 27.8599138,18.54375 26.9547414,17.6450431 C26.0560345,16.7398707 25.5387931,15.4920259 25.5387931,14.2118534 C25.5387931,12.9381466 26.0560345,11.6903017 26.9547414,10.7851293 C27.8599138,9.88642241 29.1077586,9.36918103 30.387931,9.36918103 C31.6616379,9.36918103 32.9094828,9.88642241 33.8146552,10.7851293 C34.7198276,11.6903017 35.237069,12.9381466 35.237069,14.2118534 C35.237069,15.4920259 34.7198276,16.7398707 33.8146552,17.6450431 C32.9094828,18.54375 31.6616379,19.0609914 30.387931,19.0609914 L30.387931,19.0609914 Z" id="Shape" fill="#4D4D4D"></path>
                <path d="M14.8706897,19.0609914 C13.5905172,19.0609914 12.3426724,18.54375 11.4375,17.6450431 C10.5387931,16.7398707 10.0215517,15.4920259 10.0215517,14.2118534 C10.0215517,12.9381466 10.5387931,11.6903017 11.4375,10.7851293 C12.3426724,9.88642241 13.5905172,9.36918103 14.8706897,9.36918103 C16.1443966,9.36918103 17.3922414,9.88642241 18.2974138,10.7851293 C19.2025862,11.6903017 19.7198276,12.9381466 19.7198276,14.2118534 C19.7198276,15.4920259 19.2025862,16.7398707 18.2974138,17.6450431 C17.3922414,18.54375 16.1443966,19.0609914 14.8706897,19.0609914 L14.8706897,19.0609914 Z" id="Shape" fill="#F9A18A"></path>
                <path d="M113.295259,153.803017 L73.3040948,112.265302 L113.295259,70.7282328 L120.282543,77.4549569 L86.7665948,112.265302 L120.282543,147.07694 L113.295259,153.803017 Z" id="Shape" fill="#666666"></path>
                <path d="M180.234052,153.803017 L173.24806,147.07694 L206.764009,112.265302 L173.247414,77.4549569 L180.234052,70.7282328 L220.226509,112.265302 L180.234052,153.803017 Z" id="Shape" fill="#666666"></path>
                <rect id="Rectangle-path" fill="#666666" transform="translate(146.765264, 110.974750) rotate(195.581773) translate(-146.765264, -110.974750) " x="141.916368" y="58.6276855" width="9.69779191" height="104.694129"></rect>
                <g id="Shape" fill="#F2F2F2" opacity="0.23">
                    <path d="M293.534483,11.3217672 L293.534483,192.537284 C293.534483,198.679526 288.556034,203.657974 282.413793,203.657974 L126.004526,203.657974 L231.877371,0.201077586 L282.413793,0.201077586 C288.556034,0.201077586 293.534483,5.17952586 293.534483,11.3217672 L293.534483,11.3217672 Z"></path>
                    <path d="M77.3793103,0.201077586 L62.7931034,28.2290948 L55.1443966,42.9310345 L38.3599138,75.1810345 L30.3491379,90.5818966 L14.8706897,120.323276 L0,148.900862 L0,11.3217672 C0,5.17952586 4.97844828,0.201077586 11.1206897,0.201077586 L77.3793103,0.201077586 L77.3793103,0.201077586 Z"></path>
                </g>
            </g>
        </g>
    </g>
</svg>