<?xml version="1.0" encoding="UTF-8"?>
<svg width="480px" height="372px" viewBox="0 0 480 372" version="1.1" xmlns="http://www.w3.org/2000/svg" xmlns:xlink="http://www.w3.org/1999/xlink">
    <!-- Generator: Sketch 3.6.1 (26313) - http://www.bohemiancoding.com/sketch -->
    <title>dashboard</title>
    <desc>Created with Sketch.</desc>
    <defs></defs>
    <g id="Page-1" stroke="none" stroke-width="1" fill="none" fill-rule="evenodd">
        <g id="dashboard">
            <g id="Page-1">
                <g id="Capa_1">
                    <g id="Group">
                        <path d="M0,60 L0,9.50033512 C0,0 6.60923955,0 15.69671,0 L464.30329,0 C472.565307,0 480,0 480,9.49976872 L480,60 L0,60 L0,60 Z" id="Shape" fill="#546A79"></path>
                        <path d="M0,83.1428571 C0,60 15.6967096,60 15.69671,60 L464.30329,60 C464.303284,60 480,60 480,83.1428577 L480,372 L0,371.142857 L0,83.1428571 Z" id="Shape" fill="#ECECEC" transform="translate(240.000000, 216.000000) scale(1, -1) translate(-240.000000, -216.000000) "></path>
                        <circle id="Oval" fill="#ED7161" cx="39.5" cy="28.5" r="11.5"></circle>
                        <circle id="Oval" fill="#EFC41A" cx="72.5" cy="28.5" r="11.5"></circle>
                        <circle id="Oval" fill="#4FBA6E" cx="106.5" cy="28.5" r="11.5"></circle>
                    </g>
                    <g id="Group-6" transform="translate(39.000000, 223.000000)">
                        <path d="M168.137547,125.861 C174.76444,125.861 180.138,120.48744 180.138,113.860547 L180.138,29.861453 C180.138,29.861453 174.76444,29.8614531 168.137547,29.8614531 L12.1384531,29.8614531 C5.5115604,29.8614531 0.138,29.861453 0.138,29.861453 L0.138,113.860547 C0.138,120.488799 5.51020103,125.861 12.1384531,125.861 L168.137547,125.861 Z" id="Shape" fill="#DEE3ED"></path>
                        <path d="M10,29.8614519 L180,29.8614519 L180,19.9076353 L180,9.95381764 C180,4.4571184 174.62644,0 167.999547,0 L12.0004531,0 C5.3735604,0 0,4.4571184 0,9.95381764 L0,19.9076353 C-9.76996262e-15,25.4043346 0,29.8614519 0,29.8614519 L12.0004531,29.861453 L10,29.8614519 Z" id="Shape" fill="#FFDC69"></path>
                        <rect id="Rectangle-path" fill="#F9A18A" x="131.14003" y="60" width="23.9615323" height="59.231625"></rect>
                        <rect id="Rectangle-path" fill="#7383BF" x="92.8936632" y="74" width="23.9615323" height="45.0192651"></rect>
                        <rect id="Rectangle-path" fill="#42B05C" x="56.0132378" y="89" width="23.9615323" height="29.6360005"></rect>
                        <rect id="Rectangle-path" fill="#88C5FC" x="19.1328125" y="80" width="23.9615323" height="39.0839898"></rect>
                        <path d="M70.2400561,77.4999244 L29.3284626,66.1946381 L31.6429288,63.3279405 L69.2870406,73.7045782 L107.748023,52.8705506 L142.737306,41 L145.392135,43.7859456 L110.675142,55.5353681 L70.2400561,77.4999244 Z" id="Shape" fill="#324A5E"></path>
                        <ellipse id="Oval" fill="#84DBFF" cx="142.237855" cy="42.3451894" rx="5" ry="4.34518941"></ellipse>
                        <path d="M107.723372,58.6903788 C110.484795,58.6903788 112.723372,56.7449712 112.723372,54.3451894 C112.723372,51.9454076 110.484795,50 107.723372,50 C104.961948,50 102.723372,51.9454076 102.723372,54.3451894 C102.723372,56.7449712 104.961948,58.6903788 107.723372,58.6903788 Z" id="Oval" fill="#84DBFF"></path>
                        <ellipse id="Oval" fill="#84DBFF" cx="68.1110629" cy="75.3451894" rx="5" ry="4.34518941"></ellipse>
                        <ellipse id="Oval" fill="#84DBFF" cx="28.8646959" cy="64.3451894" rx="5" ry="4.34518941"></ellipse>
                    </g>
                    <g id="Group-7" transform="translate(262.000000, 223.000000)">
                        <path d="M167.999547,126 C174.62644,126 180,120.62644 180,113.999547 L179,30.000453 C179,30.000453 174.62644,30.0004531 167.999547,30.0004531 L12.0004531,30.0004531 C5.3735604,30.0004531 0,30.000453 0,30.000453 L0,113.999547 C-9.65885228e-15,120.627799 5.37220103,126 12.0004531,126 L167.999547,126 Z" id="Shape" fill="#DEE3ED"></path>
                        <path d="M180,30 L180,20.0000007 L180,10.0000004 C180,4.47779808 174.62644,0 167.999547,0 L12.0004531,0 C5.3735604,0 0,4.47779808 0,10.0000004 L0,20.0000007 C-9.65885228e-15,25.5222031 0,30 0,30 L180,30 Z" id="Shape" fill="#7383BF"></path>
                        <path d="M133.966,67.656 L89.828,67.656 C84.531,67.656 81,64.125 81,58.828 C81,53.531 84.531,50 89.828,50 L133.966,50 C139.263,50 142.794,53.531 142.794,58.828 C142.794,64.125 139.262,67.656 133.966,67.656" id="Shape" fill="#7383BF"></path>
                        <path d="M45.828,67.656 C40.531,67.656 37,64.125 37,58.828 C37,53.531 40.531,50 45.828,50 L54.656,50 C59.953,50 63.484,53.531 63.484,58.828 C63.484,64.125 59.953,67.656 54.656,67.656 L45.828,67.656 Z" id="Shape" fill="#42B05C"></path>
                        <path d="M45.828,102.656 C40.531,102.656 37,99.125 37,93.828 C37,88.531 40.531,85 45.828,85 L81.138,85 C86.435,85 89.966,88.531 89.966,93.828 C89.966,99.125 86.435,102.656 81.138,102.656 L45.828,102.656 L45.828,102.656 Z" id="Shape" fill="#ED7161"></path>
                        <path d="M133.483,102.656 L115.828,102.656 C110.531,102.656 107,99.125 107,93.828 C107,88.531 110.531,85 115.828,85 L133.483,85 C138.78,85 142.311,88.531 142.311,93.828 C142.311,99.125 138.779,102.656 133.483,102.656" id="Shape" fill="#ECBA16"></path>
                    </g>
                    <g id="Group-5" transform="translate(52.000000, 93.000000)">
                        <path d="M61.794,92.449 C66.669,92.449 70.622,88.496 70.622,83.621 L70.6220016,21.8280001 C70.6220016,21.8280001 66.669,21.828 61.794,21.828 L8.828,21.828 C3.953,21.828 2.84217094e-14,21.8280001 2.84217094e-14,21.8280001 L2.84217094e-14,83.621 C5.68434189e-14,88.497 3.953,92.449 8.828,92.449 L61.794,92.449 Z" id="Shape" fill="#DEE3ED"></path>
                        <path d="M2.84217094e-14,21.4839994 L61.794,21.484 C65.5094076,21.4839997 70.6220016,21.4839994 70.6220016,21.4839994 L70.622,7.16133333 C70.622,3.20670035 66.669,0 61.794,0 L38,0 L8.828,0 C3.953,0 2.84217094e-14,3.20670035 2.84217094e-14,7.16133333 L2.84217094e-14,21.4839994 C2.84217094e-14,21.4839994 3.953,21.484 8.828,21.484 L2.84217094e-14,21.4839994 Z" id="Shape" fill="#B4E173"></path>
                        <path d="M29.9998584,42.0002832 L20.0001416,42.0002832 C16.9999434,42.0002832 15,40.0003398 15,37.0001416 C15,33.9999434 16.9999434,32 20.0001416,32 L29.9998584,32 C33.0000566,32 35,33.9999434 35,37.0001416 C35,40.0003398 32.9994902,42.0002832 29.9998584,42.0002832" id="Shape" fill="#ECBA16"></path>
                        <path d="M29.9998584,77.0002832 L20.0001416,77.0002832 C16.9999434,77.0002832 15,75.0003398 15,72.0001416 C15,68.9999434 16.9999434,67 20.0001416,67 L29.9998584,67 C33.0000566,67 35,68.9999434 35,72.0001416 C35,75.0003398 32.9994902,77.0002832 29.9998584,77.0002832" id="Shape" fill="#42B05C"></path>
                        <path d="M20.0001416,59.0002832 C16.9999434,59.0002832 15,57.0003398 15,54.0001416 C15,50.9999434 16.9999434,49 20.0001416,49 L29.9998584,49 C33.0000566,49 35,50.9999434 35,54.0001416 C35,57.0003398 32.9994902,59.0002832 29.9998584,59.0002832 L20.0001416,59.0002832 L20.0001416,59.0002832 Z" id="Shape" fill="#7383BF"></path>
                    </g>
                    <g id="Group-4" transform="translate(149.000000, 93.000000)">
                        <path d="M61.794,92.449 C66.669,92.449 70.622,88.496 70.622,83.621 L70.6220016,21.8280001 C70.6220016,21.8280001 66.669,21.828 61.794,21.828 L8.828,21.828 C3.953,21.828 0,21.8280001 0,21.8280001 L0,23 L0,83.621 C-5.68434189e-14,88.497 3.952,92.449 8.828,92.449 L61.794,92.449 Z" id="Shape" fill="#DEE3ED"></path>
                        <path d="M-3.15544362e-30,21.8279994 L70.6220016,21.8279994 C70.6220016,21.8279994 70.622,18.5699542 70.622,14.552 L70.622,7.276 C70.622,3.25804576 66.669,0 61.794,0 L8.828,0 C3.953,0 -3.15544362e-30,3.25804576 -3.15544362e-30,7.276 L-3.15544362e-30,14.552 C-5.68434189e-14,18.5699542 -3.15544362e-30,21.8279994 -3.15544362e-30,21.8279994 L8.828,21.828 L-3.15544362e-30,21.8279994 Z" id="Shape" fill="#F9A18A"></path>
                        <path d="M30.9998584,42.0002832 L21.0001416,42.0002832 C17.9999434,42.0002832 16,40.0003398 16,37.0001416 C16,33.9999434 17.9999434,32 21.0001416,32 L30.9998584,32 C34.0000566,32 36,33.9999434 36,37.0001416 C36,40.0003398 33.9994902,42.0002832 30.9998584,42.0002832" id="Shape" fill="#B4E173"></path>
                        <path d="M30.9998584,77.0002832 L21.0001416,77.0002832 C17.9999434,77.0002832 16,75.0003398 16,72.0001416 C16,68.9999434 17.9999434,67 21.0001416,67 L30.9998584,67 C34.0000566,67 36,68.9999434 36,72.0001416 C36,75.0003398 33.9994902,77.0002832 30.9998584,77.0002832" id="Shape" fill="#ED7161"></path>
                        <path d="M21.0001416,59.0002832 C17.9999434,59.0002832 16,57.0003398 16,54.0001416 C16,50.9999434 17.9999434,49 21.0001416,49 L30.9998584,49 C34.0000566,49 36,50.9999434 36,54.0001416 C36,57.0003398 33.9994902,59.0002832 30.9998584,59.0002832 L21.0001416,59.0002832 L21.0001416,59.0002832 Z" id="Shape" fill="#ECBA16"></path>
                    </g>
                    <g id="chart" transform="translate(280.000000, 77.000000)">
                        <path d="M120,60 C120,93.2727104 93.2727104,120 60,120 C26.7272896,120 0,93.2727104 0,60 C0,26.7272896 26.7272896,0 60,0 C93.2727104,0 120,26.7272896 120,60 L95,58" id="Shape" fill="#F9A18A"></path>
                        <path d="M1.6666974,45.8228474 C0.576899074,50.3646178 0,55.1116686 0,60 L60,60 L60,0 C31.615621,0 7.9946744,19.4507948 1.6666974,45.8228474 L1.6666974,45.8228474 Z" id="Shape" fill="#FFDC69"></path>
                    </g>
                </g>
            </g>
        </g>
    </g>
</svg>