<?xml version="1.0" encoding="UTF-8"?>
<svg width="480px" height="311px" viewBox="0 0 480 311" version="1.1" xmlns="http://www.w3.org/2000/svg" xmlns:xlink="http://www.w3.org/1999/xlink">
    <!-- Generator: Sketch 3.6.1 (26313) - http://www.bohemiancoding.com/sketch -->
    <title>dashboard2</title>
    <desc>Created with Sketch.</desc>
    <defs></defs>
    <g id="Page-1" stroke="none" stroke-width="1" fill="none" fill-rule="evenodd">
        <g id="dashboard2" transform="translate(0.000000, -34.000000)">
            <g id="line-graphic">
                <path d="M312.18218,315.677786 C310.666074,315.677786 309.125602,315.263756 307.668155,314.389441 C302.462859,311.267854 300.267212,303.462195 302.764275,296.955035 L408.918759,20.3206254 C411.415822,13.8134652 417.660734,11.06868 422.866031,14.1902668 C428.071328,17.3118535 430.266974,25.1175126 427.769912,31.6246729 L321.614525,308.257954 C319.816856,312.943154 316.077128,315.677786 312.18218,315.677786 L312.18218,315.677786 Z" id="Shape" fill="#4C5870" transform="translate(365.267093, 164.289752) rotate(-340.000000) translate(-365.267093, -164.289752) "></path>
                <path d="M271.165312,290.048284 C269.26443,290.048284 267.339487,289.379546 265.595933,287.97605 L159.97116,202.915411 C154.915408,198.844295 153.316225,190.129908 156.397985,183.451078 C159.479744,176.77347 166.071749,174.659669 171.130277,178.730785 L276.75505,263.791424 C281.810802,267.862539 283.409986,276.576927 280.328226,283.255757 C278.308886,287.632511 274.780133,290.048284 271.165312,290.048284 L271.165312,290.048284 Z" id="Shape" fill="#4C5870"></path>
                <path d="M40.4566437,354.970278 C38.0773546,354.970278 35.6852243,353.909098 33.7058465,351.735391 C29.1774925,346.760806 28.5326813,337.836139 32.2648815,331.800374 L138.081792,160.686379 C141.814909,154.650614 148.508838,153.791157 153.03811,158.765742 C157.566464,163.740327 158.211275,172.664995 154.479075,178.700759 L48.6630814,349.814754 C46.5607951,353.211018 43.521102,354.970278 40.4566437,354.970278 L40.4566437,354.970278 Z" id="Shape" fill="#4C5870" transform="translate(93.371978, 255.250906) rotate(-345.000000) translate(-93.371978, -255.250906) "></path>
                <path d="M162.329748,208.433517 C173.515262,208.433517 182.582913,199.479212 182.582913,188.433517 C182.582913,177.387822 173.515262,168.433517 162.329748,168.433517 C151.144234,168.433517 142.076584,177.387822 142.076584,188.433517 C142.076584,199.479212 151.144234,208.433517 162.329748,208.433517 Z" id="Oval" fill="#FFDC69"></path>
                <ellipse id="Oval" fill="#FFDC69" cx="20.2531646" cy="324.805037" rx="20.2531646" ry="20"></ellipse>
                <path d="M269.370398,292.789963 C280.555912,292.789963 289.623562,283.835658 289.623562,272.789963 C289.623562,261.744268 280.555912,252.789963 269.370398,252.789963 C258.184884,252.789963 249.117233,261.744268 249.117233,272.789963 C249.117233,283.835658 258.184884,292.789963 269.370398,292.789963 Z" id="Oval" fill="#FFDC69"></path>
                <ellipse id="Oval" fill="#FFDC69" cx="459.746835" cy="54.2845544" rx="20.2531646" ry="20"></ellipse>
            </g>
            <g id="thermometer" transform="translate(230.421609, 58.000000)">
                <path d="M99.6426083,57.5889264 L79.766834,57.5889264 C77.0190898,57.5889264 74.7977578,59.5735769 74.7977578,62.0190258 C74.7977578,64.4687326 77.0190898,66.4491252 79.766834,66.4491252 L99.6426083,66.4491252 C102.390353,66.4491252 104.611685,64.4687326 104.611685,62.0190258 C104.611154,59.5783079 102.390883,57.5889264 99.6426083,57.5889264 L99.6426083,57.5889264 Z" id="Path" fill="#88C5FC"></path>
                <path d="M99.6426083,39.8694751 L79.766834,39.8694751 C77.0190898,39.8694751 74.7977578,41.8541256 74.7977578,44.2995745 C74.7977578,46.7492813 77.0190898,48.7296739 79.766834,48.7296739 L99.6426083,48.7296739 C102.390353,48.7296739 104.611685,46.7492813 104.611685,44.2995745 C104.611154,41.8583835 102.390883,39.8694751 99.6426083,39.8694751 L99.6426083,39.8694751 Z" id="Path" fill="#88C5FC"></path>
                <path d="M79.766834,31.0092764 L99.6426083,31.0092764 C102.390353,31.0092764 104.611685,29.0288838 104.611685,26.579177 C104.611685,24.1294702 102.390353,22.1490776 99.6426083,22.1490776 L79.766834,22.1490776 C77.0190898,22.1490776 74.7977578,24.1294702 74.7977578,26.579177 C74.7977578,29.0288838 77.0190898,31.0092764 79.766834,31.0092764 L79.766834,31.0092764 Z" id="Path" fill="#88C5FC"></path>
                <path d="M64.8606666,22.1495507 C64.8606666,9.9185213 53.7396787,0 40.015816,0 C26.2919534,0 15.1714961,9.9185213 15.1714961,22.1495507 L15.1714961,78.6796815 C6.09353935,85.1743851 0.264798061,95.1326467 0.264798061,106.318127 C0.264798061,125.889761 18.0635792,141.757503 40.015816,141.757503 C61.9680529,141.757503 79.766834,125.889288 79.766834,106.318127 C79.766834,95.1369046 73.939154,85.1743851 64.8606666,78.6801546 L64.8606666,22.1495507 Z" id="Shape" fill="#4C5870"></path>
                <path d="M54.9225141,83.3269333 L54.9225141,22.1495507 C54.9225141,14.808946 48.2441903,8.85972566 40.015816,8.85972566 C31.7874418,8.85972566 25.109118,14.8094191 25.109118,22.1495507 L25.109118,83.3269333 C16.2099927,87.9249829 10.2024199,96.4880754 10.2024199,106.318127 C10.2024199,120.994606 23.553761,132.897777 40.015816,132.897777 C56.4778711,132.897777 69.8292122,120.994606 69.8292122,106.318127 C69.8292122,96.4880754 63.8269459,87.9249829 54.9225141,83.3269333 L54.9225141,83.3269333 Z" id="Path" fill="#FFFFFF"></path>
                <path d="M17.6560343,106.3186 C17.6560343,99.2486083 21.944277,92.6389417 28.8460076,89.0727211 L32.5627323,87.1547776 L32.5627323,22.1495507 C32.5627323,18.4858718 35.9069355,15.5048747 40.015816,15.5048747 C44.1246966,15.5048747 47.4688997,18.4863449 47.4688997,22.1495507 L47.4688997,87.1543045 L51.1856244,89.076979 C58.0873551,92.6431996 62.3755978,99.2481352 62.3755978,106.322858 C62.3755978,117.313422 52.343519,126.253101 40.015816,126.253101 C27.6881131,126.253101 17.6560343,117.309164 17.6560343,106.3186 Z" id="Path" fill="#ED7161"></path>
            </g>
            <g id="wind" transform="translate(7.064687, 129.000000)" stroke-width="3">
                <path d="M4.77774416,79.8441326 L36.6321776,79.8441326 C42.7775723,79.8441326 47.777031,85.0679532 47.777031,91.4891228 C47.777031,96.0748148 44.2061944,99.8051657 39.8170666,99.8051657 C36.8329524,99.8051657 34.4051777,97.2685185 34.4051777,94.149922 C34.4051777,91.3939181 32.2660424,89.1596101 29.6274335,89.1596101 C26.9888246,89.1596101 24.8496893,91.3939181 24.8496893,94.149922 C24.8496893,102.77152 31.5639462,109.785789 39.8168613,109.785789 C49.47479,109.785789 57.3321088,101.578246 57.3321088,91.4891228 C57.3321088,79.5647368 48.0461679,69.8637232 36.6319723,69.8637232 L4.77774416,69.8637232 C2.13913523,69.8635088 1.42108547e-14,72.0978168 1.42108547e-14,74.8538207 C1.42108547e-14,77.6098246 2.13913523,79.8441326 4.77774416,79.8441326 L4.77774416,79.8441326 Z" id="Shape" stroke="#88C5FC" fill="#88C5FC"></path>
                <path d="M4.77774416,56.5562963 L75.55828,56.5562963 C91.8526602,56.5562963 105.10914,42.7095906 105.10914,25.6898246 C105.10914,11.5244834 94.0751437,0 80.5129852,0 C69.135742,0 59.879979,9.66734893 59.879979,21.549922 C59.879979,31.6066667 67.7128681,39.788694 77.3408242,39.788694 C79.9794332,39.788694 82.1185684,37.554386 82.1185684,34.7983821 C82.1185684,32.0423782 79.9794332,29.8080702 77.3408242,29.8080702 C72.981669,29.8080702 69.435262,26.1032359 69.435262,21.549922 C69.435262,15.1703509 74.4047482,9.98062378 80.51278,9.98062378 C88.8061374,9.98062378 95.5536515,17.0279142 95.5536515,25.690039 C95.5536515,37.2065887 86.5836539,46.5758869 75.5580747,46.5758869 L4.77774416,46.5758869 C2.13913523,46.5756725 1.42108547e-14,48.8099805 1.42108547e-14,51.5659844 C1.42108547e-14,54.3219883 2.13913523,56.5562963 4.77774416,56.5562963 L4.77774416,56.5562963 Z" id="Shape" stroke="#4C5870" fill="#4C5870"></path>
            </g>
            <g id="water" transform="translate(360.506329, 200.000000)">
                <path d="M46.4635896,118.229637 C35.7813657,118.229637 26.1251607,112.594433 19.101763,105.359754 C12.0822371,98.1210846 7.74585049,88.164921 7.74585049,77.1592701 C7.8039271,69.6612214 8.36146253,66.0139535 11.9118791,59.2940419 C15.5126287,52.598073 22.4160014,43.2005719 34.7166268,26.5644012 C39.0026803,20.7662827 40.826287,18.6863794 46.4635896,10.9688562 C52.0970205,18.6863794 53.9206248,20.7622922 58.2105501,26.5644012 C70.5111755,43.2005719 77.4145482,52.598073 81.0152978,59.2940419 C84.5657144,66.0139535 85.1232498,69.6612214 85.1813264,77.1592701 C85.1813264,88.164921 80.8449398,98.1210846 73.8254139,105.359754 C66.8020162,112.594433 57.1458135,118.229637 46.4635896,118.229637 L46.4635885,121.05418 L46.4635885,125.044626 C72.094731,125.036645 92.9171305,103.572034 92.924874,77.1592701 C92.9829506,69.2262628 91.9608023,63.0171283 87.7792866,55.4153281 C83.648104,47.7895851 76.6711676,38.3960745 64.3666705,21.7279802 C60.0767451,15.9298617 55.1712077,9.28975904 49.5532639,1.59218808 C48.8253705,0.590586056 47.6793254,0 46.4635885,0 C45.2478515,0 44.1018064,0.590586056 43.3700412,1.59218808 C37.7520974,9.28975904 32.84656,15.9298617 28.5605064,21.7279802 C16.2560093,38.3960745 9.27907292,47.7895851 5.14789028,55.4153281 C0.966374576,63.0171283 -0.0557737058,69.2262628 0.00230290115,77.1592701 C0.0100464487,103.572034 20.8324459,125.036645 46.4635885,125.044626 L46.4635885,121.05418 L46.4635896,118.229637 Z" id="Shape" stroke="#88C5FC" stroke-width="3" fill="#88C5FC"></path>
                <path d="M69.6164287,75.6628527 C69.6164287,82.2710318 67.0184685,88.2327586 62.8021069,92.5823451 C58.5818734,96.9279412 52.7974434,99.6055306 46.385786,99.6055306 C44.2485668,99.6055306 42.5140122,101.393251 42.5140122,103.595977 C42.5140122,105.798703 44.2485668,107.586423 46.385786,107.586423 C63.4757955,107.578442 77.3522328,93.2766828 77.3599763,75.6628527 C77.3599763,73.4601263 75.6254217,71.6724064 73.4882025,71.6724064 C71.3509834,71.6724064 69.6164287,73.4601263 69.6164287,75.6628527 L69.6164287,75.6628527 L69.6164287,75.6628527 Z" id="Shape" fill="#4C5870"></path>
            </g>
        </g>
    </g>
</svg>