<?xml version="1.0" encoding="UTF-8"?>
<svg width="80px" height="78px" viewBox="0 0 80 78" version="1.1" xmlns="http://www.w3.org/2000/svg" xmlns:xlink="http://www.w3.org/1999/xlink">
    <!-- Generator: Sketch 3.8.1 (29687) - http://www.bohemiancoding.com/sketch -->
    <title>docs</title>
    <desc>Created with Sketch.</desc>
    <defs></defs>
    <g id="Page-1" stroke="none" stroke-width="1" fill="none" fill-rule="evenodd">
        <g id="docs">
            <path d="M79.0123457,72.1379322 C79.0123457,74.8440775 75.8635538,77.037037 71.984561,77.037037 L7.02778468,77.037037 C3.14580884,77.037037 0,74.8440775 0,72.1379322 L0,5.88675918 C-0.000213072937,3.18061385 3.14559577,0.987654321 7.02778468,0.987654321 L52.0244869,0.987654321 L79.0123457,21.8173536 L79.0123457,72.1379322 Z" id="Shape" fill="#88C5FC"></path>
            <polygon id="Shape" fill="#7383BF" points="79.020544 28.486087 79.020544 21.9046586 57.2673129 21.9046586"></polygon>
            <path d="M58.0471816,21.883899 C54.5278813,21.883899 51.6763209,19.6839335 51.6763209,16.9691428 L52.0310089,0.958960262 L79.0528547,21.8838991 L58.0471816,21.883899 Z" id="Shape" fill="#ACD1FC"></path>
            <path d="M41.0396013,27.5008371 L18.6026401,27.5008371 C17.7163801,27.5008371 17,26.2686496 17,24.7504185 C17,23.2321875 17.7163801,22 18.6026401,22 L41.0396013,22 C41.9258613,22 42.6422414,23.2321875 42.6422414,24.7504185 C42.6422414,26.2686496 41.9258613,27.5008371 41.0396013,27.5008371 L41.0396013,27.5008371 Z" id="Shape" fill="#FFFFFF"></path>
            <path d="M61.8739224,44.0033482 L18.6026401,44.0033482 C17.7163801,44.0033482 17,42.7711607 17,41.2529297 C17,39.7346987 17.7163801,38.5025112 18.6026401,38.5025112 L61.8739224,38.5025112 C62.7601824,38.5025112 63.4765625,39.7346987 63.4765625,41.2529297 C63.4765625,42.7711607 62.7601824,44.0033482 61.8739224,44.0033482 L61.8739224,44.0033482 Z" id="Shape" fill="#FFFFFF"></path>
            <path d="M61.8739224,60.5058594 L18.6026401,60.5058594 C17.7163801,60.5058594 17,59.2736719 17,57.7554408 C17,56.2372098 17.7163801,55.0050223 18.6026401,55.0050223 L61.8739224,55.0050223 C62.7601824,55.0050223 63.4765625,56.2372098 63.4765625,57.7554408 C63.4765625,59.2736719 62.7601824,60.5058594 61.8739224,60.5058594 L61.8739224,60.5058594 Z" id="Shape" fill="#FFFFFF"></path>
        </g>
    </g>
</svg>