<?xml version="1.0" encoding="UTF-8"?>
<svg width="300px" height="212px" viewBox="0 0 300 212" version="1.1" xmlns="http://www.w3.org/2000/svg" xmlns:xlink="http://www.w3.org/1999/xlink">
    <!-- Generator: Sketch 3.6.1 (26313) - http://www.bohemiancoding.com/sketch -->
    <title>docs</title>
    <desc>Created with Sketch.</desc>
    <defs></defs>
    <g id="Page-1" stroke="none" stroke-width="1" fill="none" fill-rule="evenodd">
        <g id="docs">
            <path d="M299.050806,198.184322 C299.050806,205.722108 287.133065,211.83045 272.451613,211.83045 L26.5991935,211.83045 C11.9064516,211.83045 0,205.722108 0,198.184322 L0,13.6461277 C-0.000806451613,6.10834154 11.9056452,0 26.5991935,0 L185.958065,0 L299.050806,58.0197287 L299.050806,198.184322 Z" id="Shape" fill="#88C5FC"></path>
            <path d="M201.612903,45.993704 L299.275806,69.0151726 L299.275806,47.3996974 L243.904032,38.0450195 L201.612903,45.993704 Z" id="Shape" fill="#7383BF"></path>
            <path d="M299.050806,46.9691599 L212.564659,46.9691599 C197.872368,46.9691599 185.967742,42.0242269 185.967742,35.9221046 L185.967742,0 L299.050806,46.9691599 L299.050806,46.9691599 Z" id="Shape" fill="#ACD1FC"></path>
            <path d="M149.5,41 C98.4249364,41 57,74.5338156 57,115.879486 C57,128.835733 61.0601145,141.029848 68.2388677,151.652065 L57,190.758972 L105.309478,181.661019 C118.431298,187.472277 133.494911,190.758972 149.5,190.758972 C200.575064,190.758972 242,157.225156 242,115.879486 C242,74.5338156 200.575064,41 149.5,41 L149.5,41 Z" id="Shape" fill="#FFFFFF"></path>
            <path d="M158.331344,132.386723 L141.629773,132.386723 L141.629773,125.096045 C141.629773,121.912142 142.085789,119.512678 143.054822,117.989942 C143.966853,116.421062 146.018923,114.390747 149.211032,111.852852 L159.9844,103.131725 C162.264478,101.147553 163.404517,98.6558027 163.404517,95.7026168 C163.404517,92.7494309 162.207476,90.3038238 159.870396,88.3657955 C157.476315,86.4277673 154.455211,85.4126096 150.693083,85.4126096 C146.930954,85.4126096 143.852849,86.3354802 141.287762,88.2273649 C138.779676,90.1192497 137.297625,92.6110003 136.898612,95.7026168 L119,95.7026168 C119.969033,88.5965132 123.38915,83.0592896 129.260351,79.0448024 C135.131551,75.0303153 142.4278,73 151.2061,73 C159.9844,73 167.109644,74.9380283 172.638833,78.8140848 C178.168022,82.6901413 180.904115,88.0889343 180.904115,95.0104639 C180.904115,99.809391 179.308061,103.777735 176.05895,106.961638 C174.177885,108.853523 172.752837,110.237829 171.783803,111.022269 C170.81477,111.806709 169.503726,112.821866 167.850669,114.067742 C166.197613,115.313617 164.829566,116.374918 163.689527,117.297789 C162.549488,118.22066 161.637457,119.0051 160.953433,119.651109 C159.186373,121.404563 158.274342,123.896314 158.274342,127.080217 L158.274342,132.386723 L158.331344,132.386723 L158.331344,132.386723 Z M150.294069,158.965397 C147.215964,158.965397 144.536873,158.08867 142.256795,156.381359 C139.976717,154.674048 138.836678,152.597589 138.836678,150.151982 C138.836678,147.706375 139.919715,145.629916 142.142791,143.876462 C144.365867,142.123008 147.044958,141.246281 150.123063,141.246281 C153.201169,141.246281 155.88026,142.123008 158.160338,143.830319 C160.440416,145.537629 161.523453,147.614088 161.523453,150.059695 C161.523453,152.505302 160.440416,154.581761 158.21734,156.335215 C156.051266,158.08867 153.372174,158.965397 150.294069,158.965397 L150.294069,158.965397 Z" id="Shape" fill="#FF969B"></path>
        </g>
    </g>
</svg>