<?xml version="1.0" encoding="UTF-8"?>
<svg width="203px" height="104px" viewBox="0 0 203 104" version="1.1" xmlns="http://www.w3.org/2000/svg" xmlns:xlink="http://www.w3.org/1999/xlink">
    <!-- Generator: Sketch 3.6.1 (26313) - http://www.bohemiancoding.com/sketch -->
    <title>wifi</title>
    <desc>Created with Sketch.</desc>
    <defs></defs>
    <g id="Page-1" stroke="none" stroke-width="1" fill="none" fill-rule="evenodd">
        <g id="wifi" transform="translate(-1.000000, 0.000000)">
            <text id="AGR" font-family="Helvetica-Bold, Helvetica" font-size="70.299431" font-weight="bold" fill="#50E3C2">
                <tspan x="0" y="102">AGR</tspan>
            </text>
            <path d="M168.5,67 L168.5,96.5" id="Line" stroke="#50E3C2" stroke-width="11" stroke-linecap="square"></path>
            <path d="M168.528091,42.3022032 C164.186737,42.3022032 160.66062,45.7644701 160.66062,50.0220642 C160.66062,54.2878709 164.182792,57.7419252 168.528091,57.7419252 C172.87339,57.7419252 176.391617,54.2835485 176.391617,50.0220642 C176.391617,45.7605799 172.87339,42.3022032 168.528091,42.3022032 L168.528091,42.3022032 Z M166.746655,1.77635684e-15 C153.526995,1.77635684e-15 141.098169,5.03547001 131.749041,14.1760419 C129.416986,16.4582299 129.416986,20.1564012 131.749041,22.4385893 C132.916611,23.5827227 134.445489,24.1531008 135.974711,24.1531008 C137.503933,24.1531008 139.032812,23.582385 140.197296,22.4385893 C147.288072,15.5045603 156.720157,11.3052397 166.746655,11.3052397 C176.770067,11.3052397 186.205237,15.507262 193.292928,22.4385893 C195.628067,24.7207774 199.409472,24.7207774 201.741183,22.4385893 C204.076323,20.1564012 204.076323,16.4582299 201.741183,14.1760419 C192.392055,5.03547001 179.959802,1.77635684e-15 166.746655,1.77635684e-15 L166.746655,1.77635684e-15 Z M166.79876,21.1225658 C159.321651,21.1225658 152.295321,24.0777933 147.006292,29.4421848 C144.815127,31.6639243 144.815127,35.2746308 147.006292,37.4963703 C148.097075,38.6043696 149.534427,39.1595512 150.971436,39.1595512 C152.405702,39.1595512 153.839626,38.6040319 154.933494,37.4963703 C158.101976,34.2784108 162.315648,32.3190656 166.79876,32.3190656 C171.275701,32.3190656 175.489373,34.2753715 178.664025,37.4902917 C180.85519,39.7120311 184.400406,39.7120311 186.594656,37.4902917 C188.77965,35.2685522 188.77965,31.6639243 186.594656,29.4421848 C181.305283,24.0777933 174.275526,21.1225658 166.79876,21.1225658 L166.79876,21.1225658 Z" id="Shape" fill="#2394BC"></path>
        </g>
    </g>
</svg>