<?xml version="1.0" encoding="UTF-8"?>
<svg width="481px" height="381px" viewBox="0 0 481 381" version="1.1" xmlns="http://www.w3.org/2000/svg" xmlns:xlink="http://www.w3.org/1999/xlink">
    <!-- Generator: Sketch 3.6.1 (26313) - http://www.bohemiancoding.com/sketch -->
    <title>openapi</title>
    <desc>Created with Sketch.</desc>
    <defs></defs>
    <g id="Page-1" stroke="none" stroke-width="1" fill="none" fill-rule="evenodd">
        <g id="openapi">
            <g id="plant" transform="translate(0.000000, 22.670782)">
                <path d="M481,357.934548 L0,357.934548 L0,103.646105 L240.5,0.341172105 L481,103.646105 L481,357.934548 Z" id="Shape" fill="#368CD6"></path>
                <path d="M33.1720898,357.934548 L447.82791,357.934548 L447.82791,326.14793 L33.1720898,326.14793 L33.1720898,357.934548 Z" id="Shape" fill="#9E5A23"></path>
                <g id="Group" transform="translate(103.135838, 252.976820)"></g>
                <g id="Group" transform="translate(24.425781, 216.357478)"></g>
                <g id="plant3" transform="translate(181.845895, 243.976820)">
                    <path d="M35.0962699,90.0090669 C32.6795246,90.0090669 30.7261291,88.6193358 30.7261291,86.8999573 L30.7261291,3.68866328 C30.7261291,1.97245456 32.6795246,0.579553775 35.0962699,0.579553775 C37.5130151,0.579553775 39.4664106,1.97245456 39.4664106,3.68866328 L39.4664106,86.8999573 C39.4659156,88.6193358 37.5125201,90.0090669 35.0962699,90.0090669" id="Shape" fill="#4CAF50"></path>
                    <path d="M35.0962699,34.0901756 C35.0962699,20.3421921 50.7318494,9.21835613 70.0559109,9.21835613 C70.0554159,22.9663397 54.4198363,34.0901756 35.0962699,34.0901756" id="Shape" fill="#81C784"></path>
                    <path d="M35.0962699,71.3977288 C35.0962699,57.6497453 50.7318494,46.5259093 70.0559109,46.5259093 C70.0554159,60.2738929 54.4198363,71.3977288 35.0962699,71.3977288" id="Shape" fill="#81C784"></path>
                    <path d="M0.136628778,27.8723088 C19.4606903,27.8723088 35.0962699,38.9961448 35.0962699,52.7441283 C15.7722083,52.7441283 0.136628778,41.6202924 0.136628778,27.8723088" id="Shape" fill="#81C784"></path>
                </g>
                <g id="plant1" transform="translate(24.000000, 205.000000)">
                    <path d="M35.6240277,128.985887 C33.2072824,128.985887 31.2538869,126.994817 31.2538869,124.531461 L31.2538869,5.3145084 C31.2538869,2.85569345 33.2072824,0.860082305 35.6240277,0.860082305 C38.0407729,0.860082305 39.9941684,2.85569345 39.9941684,5.3145084 L39.9941684,124.531461 C39.9941684,126.994817 38.0407729,128.985887 35.6240277,128.985887" id="Shape" fill="#4CAF50"></path>
                    <path d="M35.6240277,73.0669954 C35.6240277,59.3190118 51.2596072,48.1951759 70.5836687,48.1951759 C70.5836687,61.9431594 54.9480892,73.0669954 35.6240277,73.0669954" id="Shape" fill="#81C784"></path>
                    <path d="M35.6240277,110.374549 C35.6240277,96.626565 51.2596072,85.5027291 70.5836687,85.5027291 C70.5836687,99.2507126 54.9480892,110.374549 35.6240277,110.374549" id="Shape" fill="#81C784"></path>
                    <path d="M0.664881612,66.8491286 C19.9889431,66.8491286 35.6245227,77.9729645 35.6245227,91.7209481 C16.3004612,91.7209481 0.664881612,80.5971121 0.664881612,66.8491286" id="Shape" fill="#81C784"></path>
                    <path d="M71.015052,11.3574782 C71.015052,25.1054617 55.3794724,36.2292977 36.0554109,36.2292977 C36.0554109,22.4813142 51.6909904,11.3574782 71.015052,11.3574782 Z" id="Shape" fill="#81C784"></path>
                    <path d="M0.42578125,30.1620049 C19.7498428,30.1620049 35.3854223,41.2858409 35.3854223,55.0338245 C16.0613608,55.0338245 0.42578125,43.9099885 0.42578125,30.1620049" id="Shape" fill="#81C784"></path>
                </g>
                <g id="plant2" transform="translate(103.000000, 244.000000)">
                    <path d="M35.2830963,89.9858866 C32.866351,89.9858866 30.9129555,88.5961555 30.9129555,86.8767771 L30.9129555,3.66548304 C30.9129555,1.94927431 32.866351,0.556373528 35.2830963,0.556373528 C37.6998416,0.556373528 39.6532371,1.94927431 39.6532371,3.66548304 L39.6532371,86.8767771 C39.6532371,88.5961555 37.6998416,89.9858866 35.2830963,89.9858866" id="Shape" fill="#4CAF50"></path>
                    <path d="M35.2830963,34.0669954 C35.2830963,20.3190118 50.9186759,9.19517588 70.2427374,9.19517588 C70.2427374,22.9431594 54.6071578,34.0669954 35.2830963,34.0669954" id="Shape" fill="#81C784"></path>
                    <path d="M35.2830963,71.3745486 C35.2830963,57.626565 50.9186759,46.5027291 70.2427374,46.5027291 C70.2427374,60.2507126 54.6071578,71.3745486 35.2830963,71.3745486" id="Shape" fill="#81C784"></path>
                    <path d="M0.323455239,27.8491286 C19.6475168,27.8491286 35.2830963,38.9729645 35.2830963,52.7209481 C15.9590348,52.7209481 0.323455239,41.5971121 0.323455239,27.8491286" id="Shape" fill="#81C784"></path>
                </g>
            </g>
            <g id="thermometer" transform="translate(264.000000, 172.000000)">
                <path d="M61.1436529,31.8013579 L48.9472897,31.8013579 C47.2611925,31.8013579 45.8981175,32.8973078 45.8981175,34.2477167 C45.8981175,35.6004768 47.2611925,36.6940754 48.9472897,36.6940754 L61.1436529,36.6940754 C62.8297501,36.6940754 64.1928252,35.6004768 64.1928252,34.2477167 C64.1924995,32.8999203 62.8300757,31.8013579 61.1436529,31.8013579 L61.1436529,31.8013579 Z" id="Path" fill="#FFFFFF"></path>
                <path d="M61.1436529,22.0164453 L48.9472897,22.0164453 C47.2611925,22.0164453 45.8981175,23.1123952 45.8981175,24.462804 C45.8981175,25.8155642 47.2611925,26.9091628 48.9472897,26.9091628 L61.1436529,26.9091628 C62.8297501,26.9091628 64.1928252,25.8155642 64.1928252,24.462804 C64.1924995,23.1147465 62.8300757,22.0164453 61.1436529,22.0164453 L61.1436529,22.0164453 Z" id="Path" fill="#FFFFFF"></path>
                <path d="M48.9472897,17.1237277 L61.1436529,17.1237277 C62.8297501,17.1237277 64.1928252,16.030129 64.1928252,14.6773689 C64.1928252,13.3246088 62.8297501,12.2310101 61.1436529,12.2310101 L48.9472897,12.2310101 C47.2611925,12.2310101 45.8981175,13.3246088 45.8981175,14.6773689 C45.8981175,16.030129 47.2611925,17.1237277 48.9472897,17.1237277 L48.9472897,17.1237277 Z" id="Path" fill="#FFFFFF"></path>
                <path d="M39.8004243,12.2312714 C39.8004243,5.4771371 32.976257,0 24.5548888,0 C16.1335206,0 9.30967896,5.4771371 9.30967896,12.2312714 L9.30967896,43.4479485 C3.73917606,47.0344087 0.162487926,52.5334909 0.162487926,58.7102595 C0.162487926,69.5179716 11.0843467,78.280346 24.5548888,78.280346 C38.0254309,78.280346 48.9472897,69.5177103 48.9472897,58.7102595 C48.9472897,52.5358422 45.3712528,47.0344087 39.8004243,43.4482097 L39.8004243,12.2312714 Z" id="Shape" fill="#546A79"></path>
                <path d="M33.7020798,46.0142217 L33.7020798,12.2312714 C33.7020798,8.17769356 29.6040627,4.89245631 24.5548888,4.89245631 C19.5057149,4.89245631 15.4076978,8.17795482 15.4076978,12.2312714 L15.4076978,46.0142217 C9.94693121,48.5533248 6.26050674,53.2819764 6.26050674,58.7102595 C6.26050674,66.8148026 14.4532847,73.3878896 24.5548888,73.3878896 C34.6564929,73.3878896 42.8492709,66.8148026 42.8492709,58.7102595 C42.8492709,53.2819764 39.1661027,48.5533248 33.7020798,46.0142217 L33.7020798,46.0142217 Z" id="Path" fill="#FFFFFF"></path>
                <path d="M10.8342651,58.7105207 C10.8342651,54.8063787 13.4656577,51.1564344 17.7007639,49.1871208 L19.9814561,48.1280074 L19.9814561,12.2312714 C19.9814561,10.20814 22.0335581,8.56199448 24.5548888,8.56199448 C27.0762195,8.56199448 29.1283215,10.2084013 29.1283215,12.2312714 L29.1283215,48.1277461 L31.4090138,49.1894721 C35.6441199,51.1587857 38.2755125,54.8061175 38.2755125,58.712872 C38.2755125,64.7820049 32.1195321,69.7186127 24.5548888,69.7186127 C16.9902455,69.7186127 10.8342651,64.7796537 10.8342651,58.7105207 Z" id="Path" fill="#ED7161"></path>
            </g>
            <g id="wind" transform="translate(142.000000, 158.000000)" stroke-width="3">
                <path d="M2.92968883,45.2678017 L22.4626681,45.2678017 C26.2309934,45.2678017 29.2966365,48.229458 29.2966365,51.8699538 C29.2966365,54.4698217 27.1070173,56.5847521 24.4156261,56.5847521 C22.5857822,56.5847521 21.0970829,55.1465946 21.0970829,53.3784996 C21.0970829,51.8159773 19.7853758,50.5492316 18.167394,50.5492316 C16.5494122,50.5492316 15.2377052,51.8159773 15.2377052,53.3784996 C15.2377052,58.2665333 19.354854,62.2432881 24.4155002,62.2432881 C30.3376938,62.2432881 35.1557624,57.5900036 35.1557624,51.8699538 C35.1557624,45.1093977 29.4616699,39.6093873 22.4625422,39.6093873 L2.92968883,39.6093873 C1.31170702,39.6092657 0,40.8760114 0,42.4385337 C0,44.001056 1.31170702,45.2678017 2.92968883,45.2678017 L2.92968883,45.2678017 Z" id="Shape" stroke="#FFFFFF" fill="#FFFFFF"></path>
                <path d="M2.92968883,32.0647131 L46.3319594,32.0647131 C56.3235918,32.0647131 64.4523989,24.2142938 64.4523989,14.564901 C64.4523989,6.53383053 57.6864076,0 49.3701599,0 C42.3936912,0 36.7181036,5.48092415 36.7181036,12.2177744 C36.7181036,17.9194673 41.5211921,22.5582851 47.4250066,22.5582851 C49.0429884,22.5582851 50.3546954,21.2915394 50.3546954,19.7290171 C50.3546954,18.1664948 49.0429884,16.8997491 47.4250066,16.8997491 C44.7519944,16.8997491 42.5773554,14.7992854 42.5773554,12.2177744 C42.5773554,8.60086287 45.6246195,5.658536 49.370034,5.658536 C54.4554793,5.658536 58.5930212,9.65401239 58.5930212,14.5650225 C58.5930212,21.094355 53.0926636,26.4062987 46.3318335,26.4062987 L2.92968883,26.4062987 C1.31170702,26.4061771 0,27.6729228 0,29.2354451 C0,30.7979674 1.31170702,32.0647131 2.92968883,32.0647131 L2.92968883,32.0647131 Z" id="Shape" stroke="#AFDAF9" fill="#AFDAF9"></path>
            </g>
            <g id="water" transform="translate(376.000000, 249.000000)">
                <path d="M24.2747515,49.9007467 C18.6938583,49.9007467 13.6490053,47.522317 9.97965405,44.4688027 C6.31232555,41.4136041 4.04679443,37.2114429 4.04679443,32.5663284 C4.07713636,29.4016547 4.36841894,27.8622657 6.22332254,25.0260175 C8.10452249,22.1998746 11.7111671,18.233506 18.1375889,11.2119388 C20.3768237,8.76474829 21.329561,7.88689121 24.2747515,4.62958467 C27.2179191,7.88689121 28.1706553,8.76306406 30.4119128,11.2119388 C36.8383346,18.233506 40.4449792,22.1998746 42.3261792,25.0260175 C44.1810828,27.8622657 44.4723653,29.4016547 44.5027073,32.5663284 C44.5027073,37.2114429 42.2371762,41.4136041 38.5698477,44.4688027 C34.9004964,47.522317 29.8556446,49.9007467 24.2747515,49.9007467 L24.2747509,51.0928909 L24.2747509,52.7771238 C37.665658,52.7737554 48.544253,43.7142663 48.5482986,32.5663284 C48.5786405,29.2180733 48.0446224,26.5974068 45.8600032,23.388943 C43.7016802,20.1703739 40.0566025,16.2056895 33.6281579,9.17064843 C31.3869003,6.72345795 28.8240183,3.92089432 25.8889418,0.672008948 C25.5086562,0.249266477 24.9099087,0 24.2747509,0 C23.639593,0 23.0408455,0.249266477 22.6585371,0.672008948 C19.7234607,3.92089432 17.1605786,6.72345795 14.9213438,9.17064843 C8.49289925,16.2056895 4.8478215,20.1703739 2.68949855,23.388943 C0.504879258,26.5974068 -0.0291387914,29.2180733 0.00120314322,32.5663284 C0.00524873451,43.7142663 10.8838437,52.7737554 24.2747509,52.7771238 L24.2747509,51.0928909 L24.2747515,49.9007467 Z" id="Shape" stroke="#AFDAF9" stroke-width="3" fill="#AFDAF9"></path>
                <path d="M36.370877,31.934741 C36.370877,34.7238308 35.0135812,37.2400748 32.8107567,39.0758888 C30.6059095,40.9100184 27.5838528,42.0401388 24.2341032,42.0401388 C23.11752,42.0401388 22.2113076,42.7946751 22.2113076,43.7243717 C22.2113076,44.6540683 23.11752,45.4086047 24.2341032,45.4086047 C33.1627232,45.4052362 40.4124227,39.3689453 40.4164683,31.934741 C40.4164683,31.0050444 39.5102559,30.2505081 38.3936727,30.2505081 C37.2770895,30.2505081 36.370877,31.0050444 36.370877,31.934741 L36.370877,31.934741 L36.370877,31.934741 Z" id="Shape" fill="#4C5870"></path>
            </g>
            <g id="calendar" transform="translate(21.000000, 143.000000)">
                <path d="M46,4 L46,8 L39,8 L39,4 L15,4 L15,8 L8,8 L8,4 L0,4 L0,15 L54,15 L54,4 L46,4 Z" id="Shape" fill="#ED7161"></path>
                <path d="M8,15 L0,15 L0,58 L54,58 L54,15 L46,15 L39,15 L15,15 L8,15 Z" id="Shape" fill="#EDEADA"></path>
                <path d="M37,22 L35,22 L28,22 L26,22 L19,22 L17,22 L8,22 L8,31 L8,33 L8,40 L8,42 L8,51 L17,51 L19,51 L26,51 L28,51 L35,51 L37,51 L46,51 L46,42 L46,40 L46,33 L46,31 L46,22 L37,22 L37,22 Z M28,24 L35,24 L35,31 L28,31 L28,24 L28,24 Z M35,40 L28,40 L28,33 L35,33 L35,40 L35,40 Z M19,33 L26,33 L26,40 L19,40 L19,33 L19,33 Z M19,24 L26,24 L26,31 L19,31 L19,24 L19,24 Z M10,24 L17,24 L17,31 L10,31 L10,24 L10,24 Z M10,33 L17,33 L17,40 L10,40 L10,33 L10,33 Z M17,49 L10,49 L10,42 L17,42 L17,49 L17,49 Z M26,49 L19,49 L19,42 L26,42 L26,49 L26,49 Z M35,49 L28,49 L28,42 L35,42 L35,49 L35,49 Z M44,49 L37,49 L37,42 L44,42 L44,49 L44,49 Z M44,40 L37,40 L37,33 L44,33 L44,40 L44,40 Z M37,31 L37,24 L44,24 L44,31 L37,31 L37,31 Z" id="Shape" fill="#CEC9AE"></path>
                <rect id="Rectangle-path" fill="#28384C" x="8" y="0" width="7" height="8"></rect>
                <rect id="Rectangle-path" fill="#28384C" x="39" y="0" width="7" height="8"></rect>
                <rect id="Rectangle-path" fill="#26B99A" x="28" y="33" width="7" height="7"></rect>
            </g>
            <g id="CO2" transform="translate(277.000000, 302.000000)" fill="#FFFFFF">
                <path d="M13.2250406,5.06097688 C15.8462198,5.06097688 17.990821,6.06204923 19.6588441,8.06419392 L23.1140349,4.50482557 C20.3737112,1.61283878 17.0376649,0.166845392 12.9867516,0.166845392 C9.41241627,0.166845392 6.31465902,1.279148 3.81262431,3.61498348 C1.31058961,5.8395887 0.11914451,8.73157549 0.11914451,12.0684833 C0.11914451,15.5166214 1.31058961,18.2973779 3.81262431,20.5219832 C6.31465902,22.7465884 9.41241627,23.858891 13.1058961,23.858891 C16.7993759,23.858891 20.1354221,22.4128976 22.9948904,19.5209108 L19.5396996,16.184003 C17.8716765,18.1861477 15.6079308,19.18722 12.9867516,19.18722 C11.0804394,19.18722 9.29327176,18.5198385 7.98268215,17.2963056 C6.55294803,15.9615425 5.95722549,14.2930885 5.95722549,12.1797136 C5.95722549,10.0663386 6.67209254,8.39788471 8.10182666,7.06312157 C9.41241627,5.61712818 11.1995839,5.06097688 13.2250406,5.06097688 L13.2250406,5.06097688 Z" id="Shape"></path>
                <path d="M38.2453876,0.166845392 C34.6710523,0.166845392 31.5732951,1.279148 29.0712604,3.50375322 C26.5692257,5.72835844 25.3777806,8.62034523 25.3777806,11.9572531 C25.3777806,15.2941609 26.5692257,18.1861477 29.0712604,20.4107529 C31.5732951,22.6353581 34.5519078,23.7476607 38.2453876,23.7476607 C41.9388674,23.7476607 44.9174802,22.6353581 47.4195149,20.4107529 C49.9215496,18.1861477 51.1129947,15.2941609 51.1129947,11.9572531 C51.1129947,8.62034523 49.9215496,5.72835844 47.4195149,3.50375322 C44.9174802,1.279148 41.9388674,0.166845392 38.2453876,0.166845392 L38.2453876,0.166845392 Z M43.487746,17.1850753 C42.0580119,18.6310687 40.3899888,19.2984503 38.3645321,19.2984503 C36.3390755,19.2984503 34.5519078,18.6310687 33.2413182,17.1850753 C31.8115841,15.7390819 31.096717,14.070628 31.096717,11.9572531 C31.096717,9.95510836 31.8115841,8.17542418 33.2413182,6.72943079 C34.6710523,5.2834374 36.3390755,4.61605583 38.3645321,4.61605583 C40.3899888,4.61605583 42.1771564,5.2834374 43.487746,6.72943079 C44.9174802,8.17542418 45.6323472,9.95510836 45.6323472,11.9572531 C45.6323472,14.070628 44.9174802,15.7390819 43.487746,17.1850753 L43.487746,17.1850753 Z" id="Shape"></path>
                <path d="M58.9765323,24.9711936 L61.8360005,22.1904371 C63.0274456,21.0781345 63.7423127,20.1882924 64.2188907,19.4096805 C64.6954688,18.742299 64.8146133,17.9636872 64.8146133,17.1850753 C64.8146133,15.7390819 64.3380352,14.6267793 63.2657347,13.8481675 C62.1934341,13.0695557 61.001989,12.6246346 59.5722549,12.6246346 C58.1425207,12.6246346 57.0702202,12.9583254 56.1170641,13.5144767 C55.163908,14.070628 54.3298964,14.9604701 53.6150294,15.9615425 L56.4744976,17.5187661 C57.4276537,16.184003 58.3808098,15.5166214 59.3339658,15.5166214 C59.9296884,15.5166214 60.2871219,15.7390819 60.6445554,16.0727727 C61.001989,16.4064635 61.1211335,16.8513845 61.1211335,17.2963056 C61.1211335,17.8524569 60.8828445,18.2973779 60.5254109,18.8535292 C60.1679774,19.4096805 59.4531103,20.0770621 58.4999543,21.0781345 L53.7341739,25.6385752 L53.7341739,28.1968712 L65.1720468,28.1968712 L65.1720468,25.1936541 L58.9765323,25.1936541 L58.9765323,24.9711936 L58.9765323,24.9711936 Z" id="Shape"></path>
            </g>
            <g id="css3" transform="translate(400.000000, 81.912570)">
                <path d="M0.0291403651,0 L80.4188717,0 L72.3799574,68.3436817 L42.9037422,75.4139142 L37.5445642,75.4139142 L8.06805463,68.3436817 L0.0291403651,0 L0.0291403651,0 Z" id="Shape" fill="#4990E2"></path>
                <path d="M40.224006,7.06790252 L69.7002212,7.06790252 L64.3410432,61.2734493 L40.2243004,68.3436817 C40.224006,68.3436817 40.224006,7.06790252 40.224006,7.06790252 L40.224006,7.06790252 Z" id="Shape" fill="#88C5FC"></path>
                <path d="M42.7402102,30.2197564 C42.4649893,30.3189369 42.3080777,30.5756116 42.3652664,30.8322864 C42.4228126,31.0889612 42.6787323,31.2741191 42.9762925,31.2741191 L58.0067489,31.2741191 C58.8063192,31.2741191 59.568002,31.5727608 60.1027169,32.0956983 C60.637253,32.6186358 60.894245,33.3166717 60.8093554,34.0158078 L58.4608634,53.3918441 C58.3455923,54.3424681 57.6192951,55.1500584 56.5938292,55.4674046 L40.6401318,60.4044248 C40.0392924,60.5905258 39.3843024,60.5919404 38.7820333,60.4083543 L22.9028601,55.5706717 C21.8711392,55.256312 21.1387656,54.446364 21.0227797,53.4914962 L19.9581752,44.7164574 C19.9022375,44.2557632 20.0714804,43.7958548 20.4235487,43.4514737 C20.7757957,43.1069354 21.2776271,42.9101462 21.8044785,42.9101462 L26.2232036,42.9101462 C27.1727156,42.9101462 27.9690691,43.539966 28.0695068,44.3701901 L28.7227097,49.7639752 L39.717427,53.1252671 L50.7625418,49.7333251 L52.1134475,38.5468325 L20.8842757,38.5468325 C19.937623,38.5468325 19.1425206,37.9204706 19.0386872,37.0929185 L18.4441029,32.3517444 C18.3533157,31.6285597 18.8172595,30.9399546 19.5818017,30.6628465 L39.5687362,23.415439 C39.7955253,23.333234 39.9243788,23.121827 39.8768406,22.9102629 C39.8291237,22.6988559 39.6184189,22.5465486 39.3734008,22.5465486 L18.3299041,22.5465486 C17.6963599,22.5465486 17.1650406,22.1257781 17.0989161,21.5718761 L16.4902133,16.475947 C16.4535767,16.169289 16.5667032,15.8632598 16.8013558,15.6339343 C17.0360085,15.4047661 17.370384,15.2738352 17.7210225,15.2738352 L61.7526125,15.2738352 C62.1052169,15.2738352 62.4410222,15.4061807 62.6758535,15.6373923 C62.9106848,15.8687611 63.0222029,16.177148 62.9823495,16.4852206 L62.1093274,23.2489855 C62.0785884,23.2689474 42.7402102,30.2197564 42.7402102,30.2197564 Z" id="Path" fill="#E5E5E5"></path>
                <path d="M40.3256898,60.5025556 C40.3256715,58.306548 40.3256557,55.7507993 40.3256419,52.9696697 L50.864088,49.7333251 L52.2149937,38.5468325 L40.3255911,38.5468325 C40.3255697,29.9841569 40.3255601,21.3338224 40.3255558,15.2738086 L61.8541587,15.2738352 C62.2067631,15.2738352 62.5425684,15.4061807 62.7773997,15.6373923 C63.012231,15.8687611 63.1237491,16.177148 63.0838957,16.4852206 L62.2108736,23.2489855 C62.1801346,23.2689474 42.8417564,30.2197564 42.8417564,30.2197564 C42.5665355,30.3189369 42.4096238,30.5756116 42.4668126,30.8322864 C42.5243588,31.0889612 42.7802785,31.2741191 43.0778387,31.2741191 L58.1082951,31.2741191 C58.9078654,31.2741191 59.6695482,31.5727608 60.2042631,32.0956983 C60.7387992,32.6186358 60.9957912,33.3166717 60.9109016,34.0158078 L58.5624096,53.3918441 C58.4471385,54.3424681 57.7208413,55.1500584 56.6953754,55.4674046 L40.741678,60.4044248 C40.6053858,60.4466393 40.4663073,60.4793508 40.3256898,60.5025556 Z" id="Combined-Shape" fill="#FFFFFF"></path>
            </g>
            <g id="html5" transform="translate(316.000000, 81.912570)">
                <path d="M80.4188717,0 L72.3799574,68.7102762 L42.9037422,75.8184332 L37.5445642,75.8184332 L8.06805463,68.7102762 L0.0291403651,0 L80.4188717,0 Z" id="Shape" fill="#ED7161"></path>
                <path d="M40.224006,7.10581464 L69.7002212,7.10581464 L64.3410432,61.6021191 L40.2243004,68.7102762 C40.224006,68.7102762 40.224006,7.10581464 40.224006,7.10581464 L40.224006,7.10581464 Z" id="Shape" fill="#F9A18A"></path>
                <path d="M61.7095799,21.2914172 L62.5534731,14.2139717 L16.0213139,14.2139717 L16.9591038,21.2914172 L17.8168313,30.8164153 L17.8059405,30.8164153 L18.6180442,37.9055729 L49.8117749,37.9055729 L48.740057,49.183991 L40.224006,51.5628331 L40.224006,51.4894377 L28.8998835,48.8427807 L28.205813,42.6278607 L18.749323,42.6278607 L20.0194308,54.0436999 L20.0194308,54.5103589 L40.224006,59.2326467 L57.1675094,54.5103589 L57.3738468,54.5103589 L57.379145,54.4463332 L57.4165271,54.4416484 L57.4165271,54.0673842 L58.9494869,37.9055729 L58.9842199,37.9055729 L59.7989727,30.8164153 L27.6509687,30.8164153 L26.7935355,21.2914172 L61.7095799,21.2914172 Z" id="Shape" fill="#FFFFFF"></path>
                <path d="M40.224006,14.2139717 L16.0213139,14.2139717 L16.9591038,21.2914172 L17.8168313,30.8164153 L17.8059405,30.8164153 L18.6180442,37.9055729 L40.224006,37.9055729 L40.224006,30.8164153 L27.6509687,30.8164153 L26.7935355,21.2914172 L40.224006,21.2914172 L40.224006,14.2139717 Z" id="Shape" fill="#E5E5E5"></path>
                <path d="M40.224006,51.4894377 L28.8998835,48.8427807 L28.205813,42.6278607 L18.749323,42.6278607 L20.0194308,54.0436999 L20.0194308,54.5103589 L40.224006,59.2326467 L40.224006,51.5628331 L40.224006,51.4894377 Z" id="Shape" fill="#E5E5E5"></path>
            </g>
            <g id="js" transform="translate(358.000000, 0.912570)">
                <path d="M0.0291403651,0 L80.4188717,0 L72.3799574,68.6475843 L42.9037422,75.7492558 L37.5445642,75.7492558 L8.06805463,68.6475843 L0.0291403651,0 L0.0291403651,0 Z" id="Shape" fill="#D6BA32"></path>
                <path d="M69.7002212,7.09933124 L64.3410432,61.5459128 L40.2243004,68.6475843 C40.224006,68.6475843 40.224006,7.09933124 40.224006,7.09933124 L69.7002212,7.09933124 Z" id="Shape" fill="#FFDA3E"></path>
                <path d="M43.5633741,16.9019314 L66.2281026,16.9019314 L66.2281026,24.3339184 L50.6865745,24.3339184 L50.6865745,35.1960532 L64.9329752,34.6243619 L63.6378479,54.0618664 L44.2109378,59.2070881 L44.2109378,51.7751011 L57.8097749,48.9166446 L57.8097749,42.0563489 L43.5633741,44.3431141 L43.5633741,16.9019314 Z" id="S" fill="#FFFFFF"></path>
                <path d="M28.0825552,16.3818719 L28.0825552,49.5878433 L12.6569263,46.3837583 L12.6569263,53.95705 L35.6160018,59.2000981 L35.6160018,39.101747 L35.6160018,16.3818719 L28.0825552,16.3818719 Z" id="Line" fill="#D8D8D8"></path>
            </g>
            <g id="idea" transform="translate(241.500000, 80.294118) scale(1, -1) translate(-241.500000, -80.294118) translate(209.000000, 46.000000)">
                <path d="M32.5,11.6470588 C21.2371569,11.6470588 12.1078431,20.9181176 12.1078431,32.3529412 C12.1078431,41.5269412 17.9897059,49.2942353 26.127451,52.0131765 L26.127451,64.7058824 L28.6764706,64.7058824 L28.6764706,68.5882353 L36.3235294,68.5882353 L36.3235294,64.7058824 L38.872549,64.7058824 L38.872549,52.0131765 C47.0102941,49.2942353 52.8921569,41.5269412 52.8921569,32.3529412 C52.8921569,20.9181176 43.7628431,11.6470588 32.5,11.6470588 L32.5,11.6470588 Z" id="Shape" fill="#EFCE4A"></path>
                <g id="Group" fill="#EFCE4A">
                    <path d="M32.5,0 C31.7951961,0 31.2254902,0.578470588 31.2254902,1.29411765 L31.2254902,6.47058824 C31.2254902,7.18623529 31.7951961,7.76470588 32.5,7.76470588 C33.2048039,7.76470588 33.7745098,7.18623529 33.7745098,6.47058824 L33.7745098,1.29411765 C33.7745098,0.578470588 33.2048039,0 32.5,0 L32.5,0 Z" id="Shape"></path>
                    <path d="M63.0882353,31.0588235 L57.9901961,31.0588235 C57.2853922,31.0588235 56.7156863,31.6372941 56.7156863,32.3529412 C56.7156863,33.0685882 57.2853922,33.6470588 57.9901961,33.6470588 L63.0882353,33.6470588 C63.7930392,33.6470588 64.3627451,33.0685882 64.3627451,32.3529412 C64.3627451,31.6372941 63.7930392,31.0588235 63.0882353,31.0588235 L63.0882353,31.0588235 Z" id="Shape"></path>
                    <path d="M7.00980392,31.0588235 L1.91176471,31.0588235 C1.20696078,31.0588235 0.637254902,31.6372941 0.637254902,32.3529412 C0.637254902,33.0685882 1.20696078,33.6470588 1.91176471,33.6470588 L7.00980392,33.6470588 C7.71460784,33.6470588 8.28431373,33.0685882 8.28431373,32.3529412 C8.28431373,31.6372941 7.71460784,31.0588235 7.00980392,31.0588235 L7.00980392,31.0588235 Z" id="Shape"></path>
                    <path d="M53.2286275,9.47552941 L49.6243137,13.1352941 C49.1259804,13.6412941 49.1259804,14.4591765 49.6243137,14.9651765 C49.8728431,15.2175294 50.1991176,15.3443529 50.5253922,15.3443529 C50.8516667,15.3443529 51.1779412,15.2175294 51.4264706,14.9651765 L55.0307843,11.3054118 C55.5291176,10.7994118 55.5291176,9.98152941 55.0307843,9.47552941 C54.532451,8.96952941 53.7256863,8.97082353 53.2286275,9.47552941 L53.2286275,9.47552941 Z" id="Shape"></path>
                    <path d="M13.5735294,49.7407059 L9.96921569,53.4004706 C9.47088235,53.9064706 9.47088235,54.7243529 9.96921569,55.2303529 C10.2177451,55.4827059 10.5440196,55.6095294 10.8702941,55.6095294 C11.1965686,55.6095294 11.5228431,55.4827059 11.7713725,55.2303529 L15.3756863,51.5705882 C15.8740196,51.0645882 15.8740196,50.2467059 15.3756863,49.7407059 C14.8773529,49.2347059 14.0718627,49.2347059 13.5735294,49.7407059 L13.5735294,49.7407059 Z" id="Shape"></path>
                    <path d="M51.4264706,49.7407059 C50.9281373,49.2347059 50.1226471,49.2347059 49.6243137,49.7407059 C49.1259804,50.2467059 49.1259804,51.0645882 49.6243137,51.5705882 L53.2286275,55.2303529 C53.4771569,55.4827059 53.8034314,55.6095294 54.1297059,55.6095294 C54.4559804,55.6095294 54.7822549,55.4827059 55.0307843,55.2303529 C55.5291176,54.7243529 55.5291176,53.9064706 55.0307843,53.4004706 L51.4264706,49.7407059 L51.4264706,49.7407059 Z" id="Shape"></path>
                    <path d="M11.7713725,9.47552941 C11.2730392,8.96952941 10.467549,8.96952941 9.96921569,9.47552941 C9.47088235,9.98152941 9.47088235,10.7994118 9.96921569,11.3054118 L13.5735294,14.9651765 C13.8220588,15.2175294 14.1483333,15.3443529 14.4746078,15.3443529 C14.8008824,15.3443529 15.1271569,15.2175294 15.3756863,14.9651765 C15.8740196,14.4591765 15.8740196,13.6412941 15.3756863,13.1352941 L11.7713725,9.47552941 L11.7713725,9.47552941 Z" id="Shape"></path>
                </g>
                <path d="M18.4803922,33.6470588 C17.7755882,33.6470588 17.2058824,33.0685882 17.2058824,32.3529412 C17.2058824,23.7897647 24.0665686,16.8235294 32.5,16.8235294 C33.2048039,16.8235294 33.7745098,17.402 33.7745098,18.1176471 C33.7745098,18.8332941 33.2048039,19.4117647 32.5,19.4117647 C25.4723529,19.4117647 19.754902,25.2171765 19.754902,32.3529412 C19.754902,33.0685882 19.1851961,33.6470588 18.4803922,33.6470588 L18.4803922,33.6470588 Z" id="Shape" fill="#F7E6A1"></path>
                <path d="M26.127451,55.6470588 L26.127451,64.7058824 L28.6764706,64.7058824 L28.6764706,68.5882353 L36.3235294,68.5882353 L36.3235294,64.7058824 L38.872549,64.7058824 L38.872549,55.6470588 L26.127451,55.6470588 Z" id="Shape" fill="#556080"></path>
            </g>
            <g id="sensor" transform="translate(358.000000, 311.000000)">
                <path d="M67.9330996,22.5984071 L21.6912363,22.5984071 C20.0237324,22.5984071 18.6718848,23.9446018 18.6718848,25.6051327 L18.6718848,29.460708 L70.9526289,29.460708 L70.9526289,25.6051327 C70.9524512,23.9444248 69.6006035,22.5984071 67.9330996,22.5984071 L67.9330996,22.5984071 Z" id="Shape" fill="#F2F2F2"></path>
                <path d="M28.531166,22.5984071 L21.6912363,22.5984071 C20.0237324,22.5984071 18.6718848,23.9446018 18.6718848,25.6051327 L18.6718848,29.1670796 L28.531166,29.1670796 L28.531166,22.5984071 L28.531166,22.5984071 Z" id="Shape" fill="#E6E6E6"></path>
                <path d="M72.6898047,28.0787611 L16.9345312,28.0787611 C15.3670918,28.0787611 13.9292207,28.9444248 13.2008652,30.3265487 L9.43414062,37.4732743 L80.1900176,37.4732743 L76.4234707,30.3265487 C75.695293,28.9444248 74.2572441,28.0787611 72.6898047,28.0787611 L72.6898047,28.0787611 Z" id="Shape" fill="#CCCCCC"></path>
                <path d="M13.2006875,30.3263717 L9.43414062,37.4732743 L20.4406973,37.4732743 L25.3918437,28.0785841 L16.9345312,28.0785841 C15.3672695,28.0787611 13.929043,28.9444248 13.2006875,30.3263717 L13.2006875,30.3263717 Z" id="Shape" fill="#B3B3B3"></path>
                <path d="M88.1500293,38.9412389 L1.47412891,38.9412389 C0.660105469,38.9412389 0,38.2840708 0,37.4732743 C0,36.6624779 0.659927734,36.0053097 1.47412891,36.0053097 L88.150207,36.0053097 C88.9644082,36.0053097 89.6243359,36.6624779 89.6243359,37.4732743 C89.6243359,38.2840708 88.9644082,38.9412389 88.1500293,38.9412389 L88.1500293,38.9412389 Z" id="Shape" fill="#666666"></path>
                <g id="Group" transform="translate(70.205078, 0.946903)" fill="#666666">
                    <path d="M8.01955273,20.6729204 L5.07147266,20.6729204 C5.07147266,17.9748673 2.86721094,15.779823 0.157828125,15.779823 L0.157828125,12.8440708 C4.49276953,12.8440708 8.01955273,16.3561062 8.01955273,20.6729204 L8.01955273,20.6729204 Z" id="Shape"></path>
                    <path d="M20.7949219,20.6729204 L17.8468418,20.6729204 C17.8468418,10.96 9.91153516,3.05787611 0.157828125,3.05787611 L0.157828125,0.122123894 C11.5372715,0.122123894 20.7949219,9.34123894 20.7949219,20.6729204 L20.7949219,20.6729204 Z" id="Shape"></path>
                    <path d="M14.4071484,20.6729204 L11.4590684,20.6729204 C11.4590684,14.4674336 6.38937305,9.41893805 0.157828125,9.41893805 L0.157828125,6.48318584 C8.01493164,6.48300885 14.4071484,12.8484956 14.4071484,20.6729204 L14.4071484,20.6729204 Z" id="Shape"></path>
                </g>
            </g>
        </g>
    </g>
</svg>