<?xml version="1.0" encoding="UTF-8"?>
<svg width="386px" height="397px" viewBox="0 0 386 397" version="1.1" xmlns="http://www.w3.org/2000/svg" xmlns:xlink="http://www.w3.org/1999/xlink">
    <!-- Generator: Sketch 3.6.1 (26313) - http://www.bohemiancoding.com/sketch -->
    <title>valueadded</title>
    <desc>Created with Sketch.</desc>
    <defs></defs>
    <g id="Page-1" stroke="none" stroke-width="1" fill="none" fill-rule="evenodd">
        <g id="valueadded">
            <g id="tablet" transform="translate(149.383676, 191.176499) rotate(270.000000) translate(-149.383676, -191.176499) translate(-41.499056, 42.336293)">
                <path d="M381.515762,273.936622 C381.515762,286.663486 371.575127,296.982864 359.298214,296.982864 L22.2022781,296.982864 C9.94063481,296.982864 3.97903932e-13,286.665071 3.97903932e-13,273.936622 L3.97903932e-13,23.0446568 C3.97903932e-13,10.3177934 9.94063481,2.84217094e-14 22.2022781,2.84217094e-14 L359.298214,2.84217094e-14 C371.5736,-6.16702493e-14 381.515762,10.3177934 381.515762,23.0446568 L381.515762,273.936622 Z" id="Shape" fill="#666666"></path>
                <path d="M351.804124,23.7737175 L351.804124,272.421444 L44.2823978,272.421444 L44.2823978,23.7737175 L351.804124,23.7737175 Z" id="Shape" fill="#F2F2F2"></path>
                <path d="M31.7101965,147.781645 C31.7101965,151.957666 28.7395908,155.438046 24.7929135,156.222817 C24.245096,156.331511 23.6831483,156.388032 23.1038096,156.388032 C18.353884,156.388032 14.4974227,152.538092 14.4974227,147.781645 C14.4974227,144.204527 16.6908666,141.132836 19.8016874,139.831769 C20.814715,139.411124 21.9310019,139.175258 23.1038096,139.175258 C27.8591699,139.175258 31.7101965,143.032806 31.7101965,147.781645" id="Shape" fill="#4D4D4D"></path>
                <path d="M20.2963918,139.831769 L25.2876179,156.22173 C29.2332083,155.438046 32.2049008,151.956579 32.2049008,147.780558 C32.2049008,143.032806 28.3538742,139.175258 23.5985139,139.175258 C22.4257062,139.175258 21.3094194,139.411124 20.2963918,139.831769 Z" id="Shape" fill="#ADADAD"></path>
                <g id="Group-2" transform="translate(146.907216, 44.458763)">
                    <path d="M106.314433,168.275193 L106.314433,196.918874 C106.314433,201.780121 102.608,205.722418 98.0375969,205.722418 L71.099001,205.722418 C66.5285978,205.722418 62.8221649,201.780121 62.8221649,196.918874 L62.8221649,168.275193 C62.8221649,163.413946 66.5285978,159.471649 71.099001,159.471649 L98.0375969,159.471649 C102.608,159.471649 106.314433,163.413946 106.314433,168.275193 L106.314433,168.275193 Z" id="Shape" fill="#88C5FC"></path>
                    <path d="M167.203608,37.9731854 C167.203608,42.8344324 163.497175,46.7767292 158.926772,46.7767292 L131.988176,46.7767292 C127.417773,46.7767292 123.71134,42.8344324 123.71134,37.9731854 L123.71134,9.32950468 C123.71134,4.46825763 127.417773,0.525960862 131.988176,0.525960862 L158.926772,0.525960862 C163.497175,0.525960862 167.203608,4.46825763 167.203608,9.32950468 L167.203608,37.9731854 Z" id="Shape" fill="#88C5FC"></path>
                    <path d="M166.865302,142.141886 C166.865302,147.004099 163.158133,150.947179 158.586821,150.947179 L131.651514,150.947179 C127.080203,150.947179 123.373034,147.004099 123.373034,142.141886 L123.373034,113.492515 C123.373034,108.630302 127.080203,104.687222 131.651514,104.687222 L158.586821,104.687222 C163.158133,104.687222 166.865302,108.630302 166.865302,113.492515 L166.865302,142.141886 Z" id="Shape" fill="#B3B3B3"></path>
                    <path d="M44.4554462,113.492515 L44.4554462,142.141886 C44.4554462,147.004099 40.7569183,150.947179 36.185607,150.947179 L9.2416587,150.947179 C4.6703474,150.947179 0.963178116,147.004099 0.963178116,142.141886 L0.963178116,113.492515 C0.963178116,108.630302 4.6703474,104.687222 9.2416587,104.687222 L36.185607,104.687222 C40.7569183,104.687222 44.4554462,108.630302 44.4554462,113.492515 L44.4554462,113.492515 Z" id="Shape" fill="#FFDC69"></path>
                    <path d="M105.976127,61.4101351 L105.976127,90.0538157 C105.976127,94.9150628 102.269694,98.8573596 97.6992906,98.8573596 L70.7606947,98.8573596 C66.1902914,98.8573596 62.4838586,94.9150628 62.4838586,90.0538157 L62.4838586,61.4101351 C62.4838586,56.548888 66.1902914,52.6065912 70.7606947,52.6065912 L97.6992906,52.6065912 C102.269694,52.6065912 105.976127,56.548888 105.976127,61.4101351 L105.976127,61.4101351 Z" id="Shape" fill="#88C5FC"></path>
                    <path d="M44.4554462,61.4118842 L44.4554462,90.0612561 C44.4554462,94.923469 40.7569183,98.8665491 36.185607,98.8665491 L9.2416587,98.8665491 C4.6703474,98.8665491 0.963178116,94.923469 0.963178116,90.0612561 L0.963178116,61.4118842 C0.963178116,56.5496713 4.6703474,52.6065912 9.2416587,52.6065912 L36.185607,52.6065912 C40.7569183,52.6065912 44.4554462,56.5496713 44.4554462,61.4118842 L44.4554462,61.4118842 Z" id="Shape" fill="#B3B3B3"></path>
                    <path d="M167.203608,196.926314 C167.203608,201.788527 163.496439,205.731607 158.925128,205.731607 L131.989821,205.731607 C127.418509,205.731607 123.71134,201.788527 123.71134,196.926314 L123.71134,168.276942 C123.71134,163.41473 127.418509,159.471649 131.989821,159.471649 L158.925128,159.471649 C163.496439,159.471649 167.203608,163.41473 167.203608,168.276942 L167.203608,196.926314 Z" id="Shape" fill="#FFDC69"></path>
                    <path d="M105.976127,113.490765 L105.976127,142.134446 C105.976127,146.995693 102.269694,150.93799 97.6992906,150.93799 L70.7606947,150.93799 C66.1902914,150.93799 62.4838586,146.995693 62.4838586,142.134446 L62.4838586,113.490765 C62.4838586,108.629518 66.1902914,104.687222 70.7606947,104.687222 L97.6992906,104.687222 C102.269694,104.687222 105.976127,108.629518 105.976127,113.490765 L105.976127,113.490765 Z" id="Shape" fill="#F9A18A"></path>
                    <path d="M106.314433,9.32950468 L106.314433,37.9731854 C106.314433,42.8344324 102.608,46.7767292 98.0375969,46.7767292 L71.099001,46.7767292 C66.5285978,46.7767292 62.8221649,42.8344324 62.8221649,37.9731854 L62.8221649,9.32950468 C62.8221649,4.45906812 66.5285978,0.525960862 71.099001,0.525960862 L98.0375969,0.525960862 C102.608,0.525960862 106.314433,4.45906812 106.314433,9.32950468 L106.314433,9.32950468 Z" id="Shape" fill="#FFDC69"></path>
                    <path d="M44.4587629,168.276942 L44.4587629,196.926314 C44.4587629,201.788527 40.760235,205.731607 36.1889237,205.731607 L9.24497543,205.731607 C4.67366413,205.731607 0.966494845,201.788527 0.966494845,196.926314 L0.966494845,168.276942 C0.966494845,163.41473 4.67366413,159.471649 9.24497543,159.471649 L36.1889237,159.471649 C40.760235,159.471649 44.4587629,163.41473 44.4587629,168.276942 L44.4587629,168.276942 Z" id="Shape" fill="#F9A18A"></path>
                    <path d="M166.865302,61.4118842 L166.865302,90.0612561 C166.865302,94.923469 163.166774,98.8665491 158.595463,98.8665491 L131.651514,98.8665491 C127.080203,98.8665491 123.373034,94.923469 123.373034,90.0612561 L123.373034,61.4118842 C123.373034,56.5496713 127.080203,52.6065912 131.651514,52.6065912 L158.595463,52.6065912 C163.166774,52.6065912 166.865302,56.5496713 166.865302,61.4118842 L166.865302,61.4118842 Z" id="Shape" fill="#F9A18A"></path>
                    <path d="M44.4587629,9.33125385 L44.4587629,37.9806257 C44.4587629,42.8428386 40.760235,46.7859187 36.1889237,46.7859187 L9.24497543,46.7859187 C4.67366413,46.7859187 0.966494845,42.8428386 0.966494845,37.9806257 L0.966494845,9.33125385 C0.966494845,4.45984959 4.67366413,0.525960862 9.24497543,0.525960862 L36.1889237,0.525960862 C40.760235,0.525960862 44.4587629,4.45984959 44.4587629,9.33125385 L44.4587629,9.33125385 Z" id="Shape" fill="#F9A18A"></path>
                </g>
            </g>
            <g id="phone" transform="translate(222.293814, 181.000000)">
                <path d="M73.7910303,154.815967 L73.7910303,170.45663 C73.7910303,173.111077 71.767161,175.263738 69.2715273,175.263738 L54.5619129,175.263738 C52.0662792,175.263738 50.0424099,173.111077 50.0424099,170.45663 L50.0424099,154.815967 C50.0424099,152.161521 52.0662792,150.00886 54.5619129,150.00886 L69.2715273,150.00886 C71.767161,150.00886 73.7910303,152.161521 73.7910303,154.815967 L73.7910303,154.815967 Z" id="Shape" fill="#88C5FC"></path>
                <path d="M110.310313,118.145462 L110.310313,133.786125 C110.310313,136.440572 108.286444,138.593233 105.79081,138.593233 L91.0859136,138.593233 C88.5902799,138.593233 86.5664106,136.440572 86.5664106,133.786125 L86.5664106,118.145462 C86.5664106,115.491016 88.5902799,113.338355 91.0859136,113.338355 L105.79081,113.338355 C108.286444,113.338355 110.310313,115.491016 110.310313,118.145462 L110.310313,118.145462 Z" id="Shape" fill="#B3B3B3"></path>
                <path d="M37.2670296,118.145462 L37.2670296,133.786125 C37.2670296,136.440572 35.247878,138.593233 32.7522442,138.593233 L18.0426299,138.593233 C15.5469962,138.593233 13.5231268,136.440572 13.5231268,133.786125 L13.5231268,118.145462 C13.5231268,115.491016 15.5469962,113.338355 18.0426299,113.338355 L32.7522442,113.338355 C35.247878,113.338355 37.2670296,115.491016 37.2670296,118.145462 L37.2670296,118.145462 Z" id="Shape" fill="#FFDC69"></path>
                <path d="M73.7910303,81.4749575 L73.7910303,97.1156203 C73.7910303,99.7700671 71.767161,101.922728 69.2715273,101.922728 L54.5619129,101.922728 C52.0662792,101.922728 50.0424099,99.7700671 50.0424099,97.1156203 L50.0424099,81.4749575 C50.0424099,78.8205107 52.0662792,76.6678497 54.5619129,76.6678497 L69.2715273,76.6678497 C71.767161,76.6678497 73.7910303,78.8205107 73.7910303,81.4749575 L73.7910303,81.4749575 Z" id="Shape" fill="#88C5FC"></path>
                <path d="M97.9689564,39.9923269 L97.9689564,65.2522232 L91.081196,65.2522232 C88.5855623,65.2522232 86.5616929,63.0995622 86.5616929,60.4451154 L86.5616929,44.7994347 C86.5616929,42.1449879 88.5855623,39.9923269 91.081196,39.9923269 L97.9689564,39.9923269 L97.9689564,39.9923269 Z" id="Shape" fill="#88C5FC"></path>
                <path d="M37.2670296,81.4749575 L37.2670296,97.1156203 C37.2670296,99.7700671 35.247878,101.922728 32.7522442,101.922728 L18.0426299,101.922728 C15.5469962,101.922728 13.5231268,99.7700671 13.5231268,97.1156203 L13.5231268,81.4749575 C13.5231268,78.8205107 15.5469962,76.6678497 18.0426299,76.6678497 L32.7522442,76.6678497 C35.247878,76.6678497 37.2670296,78.8205107 37.2670296,81.4749575 L37.2670296,81.4749575 Z" id="Shape" fill="#B3B3B3"></path>
                <path d="M110.310313,154.815967 L110.310313,170.45663 C110.310313,173.111077 108.286444,175.263738 105.79081,175.263738 L91.0859136,175.263738 C88.5902799,175.263738 86.5664106,173.111077 86.5664106,170.45663 L86.5664106,154.815967 C86.5664106,152.161521 88.5902799,150.00886 91.0859136,150.00886 L105.79081,150.00886 C108.286444,150.00886 110.310313,152.161521 110.310313,154.815967 L110.310313,154.815967 Z" id="Shape" fill="#FFDC69"></path>
                <path d="M73.7910303,118.145462 L73.7910303,133.786125 C73.7910303,136.440572 71.767161,138.593233 69.2715273,138.593233 L54.5619129,138.593233 C52.0662792,138.593233 50.0424099,136.440572 50.0424099,133.786125 L50.0424099,118.145462 C50.0424099,115.491016 52.0662792,113.338355 54.5619129,113.338355 L69.2715273,113.338355 C71.767161,113.338355 73.7910303,115.491016 73.7910303,118.145462 L73.7910303,118.145462 Z" id="Shape" fill="#F9A18A"></path>
                <path d="M123.477258,190.046347 L123.477258,199.735831 C123.477258,208.306332 116.943321,215.256065 108.880867,215.256065 L14.9478554,215.256065 C6.88540158,215.256065 0.351464486,208.306332 0.351464486,199.735831 L0.351464486,190.041329 L123.477258,190.041329 L123.477258,190.046347 L123.477258,190.046347 Z M65.4549532,203.213206 C65.4549532,202.224688 65.0775417,201.256242 64.4170715,200.553742 C63.761319,199.856259 62.8508136,199.449813 61.9167201,199.449813 C60.9873442,199.449813 60.0721213,199.856259 59.4163687,200.553742 C58.7558986,201.256242 58.378487,202.224688 58.378487,203.213206 C58.378487,204.206742 58.7558986,205.175189 59.4163687,205.877689 C60.0721213,206.575171 60.9873442,206.9766 61.9167201,206.9766 C62.846096,206.9766 63.761319,206.575171 64.4170715,205.877689 C65.0775417,205.175189 65.4549532,204.206742 65.4549532,203.213206 L65.4549532,203.213206 Z" id="Shape" fill="#666666"></path>
                <path d="M123.477258,84.6763508 L123.477258,190.041329 L0.351464486,190.041329 L0.351464486,25.2147356 L97.9689564,25.2147356 L97.9689564,39.9923269 L91.081196,39.9923269 C88.5855623,39.9923269 86.5616929,42.1449879 86.5616929,44.7994347 L86.5616929,60.4451154 C86.5616929,63.0995622 88.5855623,65.2522232 91.081196,65.2522232 L97.9689564,65.2522232 L97.9689564,76.6678497 L91.081196,76.6678497 C88.5855623,76.6678497 86.5616929,78.8154929 86.5616929,81.4699396 L86.5616929,97.1156203 C86.5616929,99.7700671 88.5855623,101.922728 91.081196,101.922728 L105.79081,101.922728 C108.286444,101.922728 110.310313,99.7700671 110.310313,97.1156203 L110.310313,84.6763508 L123.477258,84.6763508 L123.477258,84.6763508 L123.477258,84.6763508 Z M110.310313,170.45663 L110.310313,154.815967 C110.310313,152.161521 108.286444,150.00886 105.79081,150.00886 L91.0859136,150.00886 C88.5902799,150.00886 86.5664106,152.161521 86.5664106,154.815967 L86.5664106,170.45663 C86.5664106,173.111077 88.5902799,175.263738 91.0859136,175.263738 L105.79081,175.263738 C108.286444,175.263738 110.310313,173.111077 110.310313,170.45663 L110.310313,170.45663 Z M110.310313,133.786125 L110.310313,118.145462 C110.310313,115.491016 108.286444,113.338355 105.79081,113.338355 L91.0859136,113.338355 C88.5902799,113.338355 86.5664106,115.491016 86.5664106,118.145462 L86.5664106,133.786125 C86.5664106,136.440572 88.5902799,138.593233 91.0859136,138.593233 L105.79081,138.593233 C108.286444,138.593233 110.310313,136.440572 110.310313,133.786125 L110.310313,133.786125 Z M73.7910303,170.45663 L73.7910303,154.815967 C73.7910303,152.161521 71.767161,150.00886 69.2715273,150.00886 L54.5619129,150.00886 C52.0662792,150.00886 50.0424099,152.161521 50.0424099,154.815967 L50.0424099,170.45663 C50.0424099,173.111077 52.0662792,175.263738 54.5619129,175.263738 L69.2715273,175.263738 C71.767161,175.263738 73.7910303,173.111077 73.7910303,170.45663 L73.7910303,170.45663 Z M73.7910303,133.786125 L73.7910303,118.145462 C73.7910303,115.491016 71.767161,113.338355 69.2715273,113.338355 L54.5619129,113.338355 C52.0662792,113.338355 50.0424099,115.491016 50.0424099,118.145462 L50.0424099,133.786125 C50.0424099,136.440572 52.0662792,138.593233 54.5619129,138.593233 L69.2715273,138.593233 C71.767161,138.593233 73.7910303,136.440572 73.7910303,133.786125 L73.7910303,133.786125 Z M73.7910303,97.1156203 L73.7910303,81.4749575 C73.7910303,78.8205107 71.767161,76.6678497 69.2715273,76.6678497 L54.5619129,76.6678497 C52.0662792,76.6678497 50.0424099,78.8205107 50.0424099,81.4749575 L50.0424099,97.1156203 C50.0424099,99.7700671 52.0662792,101.922728 54.5619129,101.922728 L69.2715273,101.922728 C71.767161,101.922728 73.7910303,99.7700671 73.7910303,97.1156203 L73.7910303,97.1156203 Z M73.7910303,60.4451154 L73.7910303,44.8044525 C73.7910303,42.1449879 71.767161,39.9973447 69.2715273,39.9973447 L54.5619129,39.9973447 C52.0662792,39.9973447 50.0424099,42.1449879 50.0424099,44.8044525 L50.0424099,60.4451154 C50.0424099,63.0995622 52.0662792,65.2522232 54.5619129,65.2522232 L69.2715273,65.2522232 C71.767161,65.2522232 73.7910303,63.0995622 73.7910303,60.4451154 L73.7910303,60.4451154 Z M37.2670296,170.45663 L37.2670296,154.815967 C37.2670296,152.161521 35.247878,150.00886 32.7522442,150.00886 L18.0426299,150.00886 C15.5469962,150.00886 13.5231268,152.161521 13.5231268,154.815967 L13.5231268,170.45663 C13.5231268,173.111077 15.5469962,175.263738 18.0426299,175.263738 L32.7522442,175.263738 C35.247878,175.263738 37.2670296,173.111077 37.2670296,170.45663 L37.2670296,170.45663 Z M37.2670296,133.786125 L37.2670296,118.145462 C37.2670296,115.491016 35.247878,113.338355 32.7522442,113.338355 L18.0426299,113.338355 C15.5469962,113.338355 13.5231268,115.491016 13.5231268,118.145462 L13.5231268,133.786125 C13.5231268,136.440572 15.5469962,138.593233 18.0426299,138.593233 L32.7522442,138.593233 C35.247878,138.593233 37.2670296,136.440572 37.2670296,133.786125 L37.2670296,133.786125 Z M37.2670296,97.1156203 L37.2670296,81.4749575 C37.2670296,78.8205107 35.247878,76.6678497 32.7522442,76.6678497 L18.0426299,76.6678497 C15.5469962,76.6678497 13.5231268,78.8205107 13.5231268,81.4749575 L13.5231268,97.1156203 C13.5231268,99.7700671 15.5469962,101.922728 18.0426299,101.922728 L32.7522442,101.922728 C35.247878,101.922728 37.2670296,99.7700671 37.2670296,97.1156203 L37.2670296,97.1156203 Z M37.2670296,60.4451154 L37.2670296,44.8044525 C37.2670296,42.1449879 35.247878,39.9973447 32.7522442,39.9973447 L18.0426299,39.9973447 C15.5469962,39.9973447 13.5231268,42.1449879 13.5231268,44.8044525 L13.5231268,60.4451154 C13.5231268,63.0995622 15.5469962,65.2522232 18.0426299,65.2522232 L32.7522442,65.2522232 C35.247878,65.2522232 37.2670296,63.0995622 37.2670296,60.4451154 L37.2670296,60.4451154 Z" id="Shape" fill="#F2F2F2"></path>
                <path d="M123.302705,13.1367518 L105.149211,13.1367518 C101.18639,13.1367518 97.9689564,16.553913 97.9689564,20.7739314 L97.9689564,25.2147356 L0.351464486,25.2147356 L0.351464486,15.5252521 C0.351464486,6.94973309 6.88540158,0 14.9478554,0 L108.880867,0 C116.179063,0 122.227082,5.69526863 123.302705,13.1367518 L123.302705,13.1367518 Z M79.2540622,12.9611268 C79.2540622,10.8837336 77.6689338,9.19773339 75.7158291,9.19773339 L48.1176111,9.19773339 C46.1645064,9.19773339 44.579378,10.8837336 44.579378,12.9611268 C44.579378,15.0385199 46.1645064,16.7245201 48.1176111,16.7245201 L75.7158291,16.7245201 C77.6689338,16.7245201 79.2540622,15.0385199 79.2540622,12.9611268 L79.2540622,12.9611268 Z" id="Shape" fill="#666666"></path>
                <path d="M110.310313,84.6763508 L110.310313,97.1156203 C110.310313,99.7700671 108.286444,101.922728 105.79081,101.922728 L91.081196,101.922728 C88.5855623,101.922728 86.5616929,99.7700671 86.5616929,97.1156203 L86.5616929,81.4699396 C86.5616929,78.8154929 88.5855623,76.6678497 91.081196,76.6678497 L97.9689564,76.6678497 L97.9689564,77.0391712 C97.9689564,81.2541718 101.18639,84.6763508 105.149211,84.6763508 L110.310313,84.6763508 L110.310313,84.6763508 L110.310313,84.6763508 Z" id="Shape" fill="#F9A18A"></path>
                <path d="M75.7158291,9.19773339 C77.6689338,9.19773339 79.2540622,10.8837336 79.2540622,12.9611268 C79.2540622,15.0385199 77.6689338,16.7245201 75.7158291,16.7245201 L48.1176111,16.7245201 C46.1645064,16.7245201 44.579378,15.0385199 44.579378,12.9611268 C44.579378,10.8837336 46.1645064,9.19773339 48.1176111,9.19773339 L75.7158291,9.19773339 L75.7158291,9.19773339 Z" id="Shape" fill="#4D4D4D"></path>
                <path d="M73.7910303,44.8044525 L73.7910303,60.4451154 C73.7910303,63.0995622 71.767161,65.2522232 69.2715273,65.2522232 L54.5619129,65.2522232 C52.0662792,65.2522232 50.0424099,63.0995622 50.0424099,60.4451154 L50.0424099,44.8044525 C50.0424099,42.1449879 52.0662792,39.9973447 54.5619129,39.9973447 L69.2715273,39.9973447 C71.767161,39.9973447 73.7910303,42.1449879 73.7910303,44.8044525 L73.7910303,44.8044525 Z" id="Shape" fill="#FFDC69"></path>
                <path d="M64.4170715,200.553742 C65.0775417,201.256242 65.4549532,202.224688 65.4549532,203.213206 C65.4549532,204.206742 65.0775417,205.175189 64.4170715,205.877689 C63.761319,206.575171 62.846096,206.9766 61.9167201,206.9766 C60.9873442,206.9766 60.0721213,206.575171 59.4163687,205.877689 C58.7558986,205.175189 58.378487,204.206742 58.378487,203.213206 C58.378487,202.224688 58.7558986,201.256242 59.4163687,200.553742 C60.0721213,199.856259 60.9873442,199.449813 61.9167201,199.449813 C62.8508136,199.449813 63.761319,199.856259 64.4170715,200.553742 L64.4170715,200.553742 Z" id="Shape" fill="#4D4D4D"></path>
                <path d="M37.2670296,154.815967 L37.2670296,170.45663 C37.2670296,173.111077 35.247878,175.263738 32.7522442,175.263738 L18.0426299,175.263738 C15.5469962,175.263738 13.5231268,173.111077 13.5231268,170.45663 L13.5231268,154.815967 C13.5231268,152.161521 15.5469962,150.00886 18.0426299,150.00886 L32.7522442,150.00886 C35.247878,150.00886 37.2670296,152.161521 37.2670296,154.815967 L37.2670296,154.815967 Z" id="Shape" fill="#F9A18A"></path>
                <path d="M37.2670296,44.8044525 L37.2670296,60.4451154 C37.2670296,63.0995622 35.247878,65.2522232 32.7522442,65.2522232 L18.0426299,65.2522232 C15.5469962,65.2522232 13.5231268,63.0995622 13.5231268,60.4451154 L13.5231268,44.8044525 C13.5231268,42.1449879 15.5469962,39.9973447 18.0426299,39.9973447 L32.7522442,39.9973447 C35.247878,39.9973447 37.2670296,42.1449879 37.2670296,44.8044525 L37.2670296,44.8044525 Z" id="Shape" fill="#F9A18A"></path>
                <path d="M156.40612,13 L104.9803,13 C101.127835,13 98,16.4171612 98,20.6371796 L98,76.9024194 C98,81.11742 101.127835,84.539599 104.9803,84.539599 L156.40612,84.539599 C160.263172,84.539599 163.38642,81.11742 163.38642,76.9024194 L163.38642,20.6371796 C163.38642,16.4171612 160.263172,13 156.40612,13 L156.40612,13 Z M130.695503,71.7039187 C126.810934,71.7039187 123.174024,70.5498114 120.055362,68.5326326 C113.873073,64.5434356 109.731673,57.187256 109.731673,48.7672906 C109.731673,36.1022174 119.115177,25.8306625 130.695503,25.8306625 C133.79582,25.8306625 136.740204,26.5682876 139.386481,27.893002 C146.628197,31.5058597 151.659333,39.4942893 151.659333,48.7672906 C151.659333,61.4373816 142.271243,71.7039187 130.695503,71.7039187 L130.695503,71.7039187 Z" id="Shape" fill="#E6E6E6"></path>
                <circle id="Oval-1" fill-opacity="0.744310462" fill="#8B572A" cx="130.5" cy="48.5" r="23.5"></circle>
                <g id="leaf" transform="translate(117.000000, 32.000000)">
                    <g id="Group-3">
                        <path d="M22.587463,2.09266584 C20.7161473,0.36298584 18.2666389,7.99360578e-15 16.5413102,7.99360578e-15 C15.1727529,7.99360578e-15 14.1653862,0.229009253 14.1232498,0.238792726 C13.6382195,0.350922723 13.2798552,0.729818579 13.2246668,1.1890244 C13.2183464,1.24150371 13.0721539,2.48984635 13.2222517,4.01635307 C13.4353485,6.18239496 14.1205264,7.81409775 15.258824,8.86610604 C17.1302939,10.5957386 19.5798023,10.9587719 21.305131,10.9587719 C21.6405259,10.9587719 21.9541847,10.944904 22.2372175,10.9240548 L22.2372175,12.9872278 C22.6280577,12.9262948 23.0277876,12.8948072 23.4331186,12.8948072 L23.4331186,3.0340164 C23.1914513,2.70840723 22.9118613,2.39253404 22.587463,2.09266584 Z" id="Shape" fill="#B8E986" transform="translate(18.293938, 6.493614) scale(-1, 1) translate(-18.293938, -6.493614) "></path>
                        <path d="M12.3103084,2.09266584 C10.4389927,0.36298584 7.98948431,0 6.2641556,0 C4.89559831,0 3.88823163,0.229009253 3.84609529,0.238792726 C3.36106498,0.350922723 3.0027006,0.729818579 2.94751228,1.1890244 C2.94119183,1.24150371 2.79499931,2.48984635 2.94509715,4.01635307 C3.15819395,6.18239496 3.84337185,7.81409775 4.98166948,8.86610604 C6.85313933,10.5957386 9.30264773,10.9587719 11.0279764,10.9587719 C11.3633714,10.9587719 11.6770301,10.944904 11.960063,10.9240548 L11.960063,12.9872278 C12.3509032,12.9262948 12.7506331,12.8948072 13.1559641,12.8948072 L13.1559641,3.0340164 C12.9142968,2.70840723 12.6347068,2.39253404 12.3103084,2.09266584 Z" id="Shape-Copy" fill="#7ED321"></path>
                        <path d="M6.93723348,16.3040625 C3.09054592,16.4205618 0,19.3490497 0,22.9320804 C0,23.5425501 0.535439752,24.0373754 1.19590109,24.0373754 L13.1547578,24.0373754 L13.1547578,12.9845682 C12.7494269,12.9845682 12.3496969,13.0160083 11.9588567,13.0769412 C9.85507182,13.4045451 8.00893516,14.5849734 6.93723348,16.3040625 Z" id="Shape" fill="#48AEE2"></path>
                        <path d="M20.0919913,16.2849705 C16.2453037,16.4014698 13.1547578,19.3299577 13.1547578,22.9129884 C13.1547578,23.5234581 13.6901976,24.0182834 14.3506589,24.0182834 L26.3095157,24.0182834 L26.3095157,12.9654761 C25.9041847,12.9654761 25.5044548,12.9969162 25.1136146,13.0578492 C23.0098296,13.3854531 21.163693,14.5658813 20.0919913,16.2849705 Z" id="Shape-Copy-2" fill="#8DC3E9" transform="translate(19.732137, 18.491880) scale(-1, 1) translate(-19.732137, -18.491880) "></path>
                    </g>
                    <text id="AGRI" font-family="PingFangTC-Semibold, PingFang TC" font-size="7.08623616" font-weight="500" fill="#4A4A4A">
                        <tspan x="0" y="33">AGRI</tspan>
                    </text>
                </g>
            </g>
        </g>
    </g>
</svg>