<?xml version="1.0" encoding="UTF-8"?>
<svg width="351px" height="429px" viewBox="0 0 351 429" version="1.1" xmlns="http://www.w3.org/2000/svg" xmlns:xlink="http://www.w3.org/1999/xlink">
    <!-- Generator: Sketch 3.6.1 (26313) - http://www.bohemiancoding.com/sketch -->
    <title>valueadded</title>
    <desc>Created with Sketch.</desc>
    <defs></defs>
    <g id="Page-1" stroke="none" stroke-width="1" fill="none" fill-rule="evenodd">
        <g id="valueadded">
            <g id="Group">
                <path d="M156.415,308.53 L156.415,339.7 C156.415,344.99 152.125,349.28 146.835,349.28 L115.655,349.28 C110.365,349.28 106.075,344.99 106.075,339.7 L106.075,308.53 C106.075,303.24 110.365,298.95 115.655,298.95 L146.835,298.95 C152.125,298.95 156.415,303.24 156.415,308.53 L156.415,308.53 Z" id="Shape" fill="#88C5FC"></path>
                <path d="M233.825,235.45 L233.825,266.62 C233.825,271.91 229.535,276.2 224.245,276.2 L193.075,276.2 C187.785,276.2 183.495,271.91 183.495,266.62 L183.495,235.45 C183.495,230.16 187.785,225.87 193.075,225.87 L224.245,225.87 C229.535,225.87 233.825,230.16 233.825,235.45 L233.825,235.45 Z" id="Shape" fill="#B3B3B3"></path>
                <path d="M78.995,235.45 L78.995,266.62 C78.995,271.91 74.715,276.2 69.425,276.2 L38.245,276.2 C32.955,276.2 28.665,271.91 28.665,266.62 L28.665,235.45 C28.665,230.16 32.955,225.87 38.245,225.87 L69.425,225.87 C74.715,225.87 78.995,230.16 78.995,235.45 L78.995,235.45 Z" id="Shape" fill="#FFDC69"></path>
                <path d="M156.415,162.37 L156.415,193.54 C156.415,198.83 152.125,203.12 146.835,203.12 L115.655,203.12 C110.365,203.12 106.075,198.83 106.075,193.54 L106.075,162.37 C106.075,157.08 110.365,152.79 115.655,152.79 L146.835,152.79 C152.125,152.79 156.415,157.08 156.415,162.37 L156.415,162.37 Z" id="Shape" fill="#88C5FC"></path>
                <path d="M207.665,79.7 L207.665,130.04 L193.065,130.04 C187.775,130.04 183.485,125.75 183.485,120.46 L183.485,89.28 C183.485,83.99 187.775,79.7 193.065,79.7 L207.665,79.7 L207.665,79.7 Z" id="Shape" fill="#88C5FC"></path>
                <path d="M78.995,162.37 L78.995,193.54 C78.995,198.83 74.715,203.12 69.425,203.12 L38.245,203.12 C32.955,203.12 28.665,198.83 28.665,193.54 L28.665,162.37 C28.665,157.08 32.955,152.79 38.245,152.79 L69.425,152.79 C74.715,152.79 78.995,157.08 78.995,162.37 L78.995,162.37 Z" id="Shape" fill="#B3B3B3"></path>
                <path d="M233.825,308.53 L233.825,339.7 C233.825,344.99 229.535,349.28 224.245,349.28 L193.075,349.28 C187.785,349.28 183.495,344.99 183.495,339.7 L183.495,308.53 C183.495,303.24 187.785,298.95 193.075,298.95 L224.245,298.95 C229.535,298.95 233.825,303.24 233.825,308.53 L233.825,308.53 Z" id="Shape" fill="#FFDC69"></path>
                <path d="M156.415,235.45 L156.415,266.62 C156.415,271.91 152.125,276.2 146.835,276.2 L115.655,276.2 C110.365,276.2 106.075,271.91 106.075,266.62 L106.075,235.45 C106.075,230.16 110.365,225.87 115.655,225.87 L146.835,225.87 C152.125,225.87 156.415,230.16 156.415,235.45 L156.415,235.45 Z" id="Shape" fill="#F9A18A"></path>
                <path d="M261.735,378.74 L261.735,398.05 C261.735,415.13 247.885,428.98 230.795,428.98 L31.685,428.98 C14.595,428.98 0.745,415.13 0.745,398.05 L0.745,378.73 L261.735,378.73 L261.735,378.74 L261.735,378.74 Z M138.745,404.98 C138.745,403.01 137.945,401.08 136.545,399.68 C135.155,398.29 133.225,397.48 131.245,397.48 C129.275,397.48 127.335,398.29 125.945,399.68 C124.545,401.08 123.745,403.01 123.745,404.98 C123.745,406.96 124.545,408.89 125.945,410.29 C127.335,411.68 129.275,412.48 131.245,412.48 C133.215,412.48 135.155,411.68 136.545,410.29 C137.945,408.89 138.745,406.96 138.745,404.98 L138.745,404.98 Z" id="Shape" fill="#666666"></path>
                <path d="M261.735,168.75 L261.735,378.73 L0.745,378.73 L0.745,50.25 L207.665,50.25 L207.665,79.7 L193.065,79.7 C187.775,79.7 183.485,83.99 183.485,89.28 L183.485,120.46 C183.485,125.75 187.775,130.04 193.065,130.04 L207.665,130.04 L207.665,152.79 L193.065,152.79 C187.775,152.79 183.485,157.07 183.485,162.36 L183.485,193.54 C183.485,198.83 187.775,203.12 193.065,203.12 L224.245,203.12 C229.535,203.12 233.825,198.83 233.825,193.54 L233.825,168.75 L261.735,168.75 L261.735,168.75 L261.735,168.75 Z M233.825,339.7 L233.825,308.53 C233.825,303.24 229.535,298.95 224.245,298.95 L193.075,298.95 C187.785,298.95 183.495,303.24 183.495,308.53 L183.495,339.7 C183.495,344.99 187.785,349.28 193.075,349.28 L224.245,349.28 C229.535,349.28 233.825,344.99 233.825,339.7 L233.825,339.7 Z M233.825,266.62 L233.825,235.45 C233.825,230.16 229.535,225.87 224.245,225.87 L193.075,225.87 C187.785,225.87 183.495,230.16 183.495,235.45 L183.495,266.62 C183.495,271.91 187.785,276.2 193.075,276.2 L224.245,276.2 C229.535,276.2 233.825,271.91 233.825,266.62 L233.825,266.62 Z M156.415,339.7 L156.415,308.53 C156.415,303.24 152.125,298.95 146.835,298.95 L115.655,298.95 C110.365,298.95 106.075,303.24 106.075,308.53 L106.075,339.7 C106.075,344.99 110.365,349.28 115.655,349.28 L146.835,349.28 C152.125,349.28 156.415,344.99 156.415,339.7 L156.415,339.7 Z M156.415,266.62 L156.415,235.45 C156.415,230.16 152.125,225.87 146.835,225.87 L115.655,225.87 C110.365,225.87 106.075,230.16 106.075,235.45 L106.075,266.62 C106.075,271.91 110.365,276.2 115.655,276.2 L146.835,276.2 C152.125,276.2 156.415,271.91 156.415,266.62 L156.415,266.62 Z M156.415,193.54 L156.415,162.37 C156.415,157.08 152.125,152.79 146.835,152.79 L115.655,152.79 C110.365,152.79 106.075,157.08 106.075,162.37 L106.075,193.54 C106.075,198.83 110.365,203.12 115.655,203.12 L146.835,203.12 C152.125,203.12 156.415,198.83 156.415,193.54 L156.415,193.54 Z M156.415,120.46 L156.415,89.29 C156.415,83.99 152.125,79.71 146.835,79.71 L115.655,79.71 C110.365,79.71 106.075,83.99 106.075,89.29 L106.075,120.46 C106.075,125.75 110.365,130.04 115.655,130.04 L146.835,130.04 C152.125,130.04 156.415,125.75 156.415,120.46 L156.415,120.46 Z M78.995,339.7 L78.995,308.53 C78.995,303.24 74.715,298.95 69.425,298.95 L38.245,298.95 C32.955,298.95 28.665,303.24 28.665,308.53 L28.665,339.7 C28.665,344.99 32.955,349.28 38.245,349.28 L69.425,349.28 C74.715,349.28 78.995,344.99 78.995,339.7 L78.995,339.7 Z M78.995,266.62 L78.995,235.45 C78.995,230.16 74.715,225.87 69.425,225.87 L38.245,225.87 C32.955,225.87 28.665,230.16 28.665,235.45 L28.665,266.62 C28.665,271.91 32.955,276.2 38.245,276.2 L69.425,276.2 C74.715,276.2 78.995,271.91 78.995,266.62 L78.995,266.62 Z M78.995,193.54 L78.995,162.37 C78.995,157.08 74.715,152.79 69.425,152.79 L38.245,152.79 C32.955,152.79 28.665,157.08 28.665,162.37 L28.665,193.54 C28.665,198.83 32.955,203.12 38.245,203.12 L69.425,203.12 C74.715,203.12 78.995,198.83 78.995,193.54 L78.995,193.54 Z M78.995,120.46 L78.995,89.29 C78.995,83.99 74.715,79.71 69.425,79.71 L38.245,79.71 C32.955,79.71 28.665,83.99 28.665,89.29 L28.665,120.46 C28.665,125.75 32.955,130.04 38.245,130.04 L69.425,130.04 C74.715,130.04 78.995,125.75 78.995,120.46 L78.995,120.46 Z" id="Shape" fill="#F2F2F2"></path>
                <path d="M261.365,26.18 L222.885,26.18 C214.485,26.18 207.665,32.99 207.665,41.4 L207.665,50.25 L0.745,50.25 L0.745,30.94 C0.745,13.85 14.595,0 31.685,0 L230.795,0 C246.265,0 259.085,11.35 261.365,26.18 L261.365,26.18 Z M167.995,25.83 C167.995,21.69 164.635,18.33 160.495,18.33 L101.995,18.33 C97.855,18.33 94.495,21.69 94.495,25.83 C94.495,29.97 97.855,33.33 101.995,33.33 L160.495,33.33 C164.635,33.33 167.995,29.97 167.995,25.83 L167.995,25.83 Z" id="Shape" fill="#666666"></path>
                <path d="M233.825,168.75 L233.825,193.54 C233.825,198.83 229.535,203.12 224.245,203.12 L193.065,203.12 C187.775,203.12 183.485,198.83 183.485,193.54 L183.485,162.36 C183.485,157.07 187.775,152.79 193.065,152.79 L207.665,152.79 L207.665,153.53 C207.665,161.93 214.485,168.75 222.885,168.75 L233.825,168.75 L233.825,168.75 L233.825,168.75 Z" id="Shape" fill="#F9A18A"></path>
                <path d="M160.495,18.33 C164.635,18.33 167.995,21.69 167.995,25.83 C167.995,29.97 164.635,33.33 160.495,33.33 L101.995,33.33 C97.855,33.33 94.495,29.97 94.495,25.83 C94.495,21.69 97.855,18.33 101.995,18.33 L160.495,18.33 L160.495,18.33 Z" id="Shape" fill="#4D4D4D"></path>
                <path d="M156.415,89.29 L156.415,120.46 C156.415,125.75 152.125,130.04 146.835,130.04 L115.655,130.04 C110.365,130.04 106.075,125.75 106.075,120.46 L106.075,89.29 C106.075,83.99 110.365,79.71 115.655,79.71 L146.835,79.71 C152.125,79.71 156.415,83.99 156.415,89.29 L156.415,89.29 Z" id="Shape" fill="#FFDC69"></path>
                <path d="M136.545,399.68 C137.945,401.08 138.745,403.01 138.745,404.98 C138.745,406.96 137.945,408.89 136.545,410.29 C135.155,411.68 133.215,412.48 131.245,412.48 C129.275,412.48 127.335,411.68 125.945,410.29 C124.545,408.89 123.745,406.96 123.745,404.98 C123.745,403.01 124.545,401.08 125.945,399.68 C127.335,398.29 129.275,397.48 131.245,397.48 C133.225,397.48 135.155,398.29 136.545,399.68 L136.545,399.68 Z" id="Shape" fill="#4D4D4D"></path>
                <path d="M78.995,308.53 L78.995,339.7 C78.995,344.99 74.715,349.28 69.425,349.28 L38.245,349.28 C32.955,349.28 28.665,344.99 28.665,339.7 L28.665,308.53 C28.665,303.24 32.955,298.95 38.245,298.95 L69.425,298.95 C74.715,298.95 78.995,303.24 78.995,308.53 L78.995,308.53 Z" id="Shape" fill="#F9A18A"></path>
                <path d="M78.995,89.29 L78.995,120.46 C78.995,125.75 74.715,130.04 69.425,130.04 L38.245,130.04 C32.955,130.04 28.665,125.75 28.665,120.46 L28.665,89.29 C28.665,83.99 32.955,79.71 38.245,79.71 L69.425,79.71 C74.715,79.71 78.995,83.99 78.995,89.29 L78.995,89.29 Z" id="Shape" fill="#F9A18A"></path>
                <path d="M335.015,26.18 L222.885,26.18 C214.485,26.18 207.665,32.99 207.665,41.4 L207.665,153.53 C207.665,161.93 214.485,168.75 222.885,168.75 L335.015,168.75 C343.425,168.75 350.235,161.93 350.235,153.53 L350.235,41.4 C350.235,32.99 343.425,26.18 335.015,26.18 L335.015,26.18 Z M278.955,143.17 C270.485,143.17 262.555,140.87 255.755,136.85 C242.275,128.9 233.245,114.24 233.245,97.46 C233.245,72.22 253.705,51.75 278.955,51.75 C285.715,51.75 292.135,53.22 297.905,55.86 C313.695,63.06 324.665,78.98 324.665,97.46 C324.665,122.71 304.195,143.17 278.955,143.17 L278.955,143.17 Z" id="Shape" fill="#E6E6E6"></path>
                <circle id="Oval-1" fill-opacity="0.744310462" fill="#8B572A" cx="279.5" cy="97.5" r="46.5"></circle>
                <g id="leaf" transform="translate(254.000000, 66.000000)">
                    <path d="M42.9264135,4.30302734 C39.3700658,0.746386719 34.71489,0 31.4359838,0 C28.8351049,0 26.9206518,0.470898437 26.8405736,0.491015625 C25.9187963,0.721582031 25.2377416,1.50068359 25.1328588,2.44492187 C25.1208471,2.55283203 24.843015,5.11972656 25.1282689,8.25859375 C25.5332494,12.7125 26.8353979,16.0676758 28.9986791,18.2308594 C32.5553197,21.7874023 37.2104955,22.5338867 40.4894018,22.5338867 C41.1268041,22.5338867 41.7228979,22.5053711 42.2607885,22.4625 L42.2607885,26.7048828 C43.0035619,26.5795898 43.7632299,26.5148437 44.5335424,26.5148437 L44.5335424,6.23867187 C44.074265,5.56914062 43.5429174,4.91962891 42.9264135,4.30302734 Z" id="Shape" fill="#B8E986" transform="translate(34.766771, 13.352441) scale(-1, 1) translate(-34.766771, -13.352441) "></path>
                    <path d="M23.3951635,4.30302734 C19.8388158,0.746386719 15.18364,0 11.9047338,0 C9.30385488,0 7.38940176,0.470898437 7.30932363,0.491015625 C6.38754629,0.721582031 5.7064916,1.50068359 5.60160879,2.44492187 C5.58959707,2.55283203 5.31176504,5.11972656 5.59701895,8.25859375 C6.00199941,12.7125 7.30414785,16.0676758 9.4674291,18.2308594 C13.0240697,21.7874023 17.6792455,22.5338867 20.9581518,22.5338867 C21.5955541,22.5338867 22.1916479,22.5053711 22.7295385,22.4625 L22.7295385,26.7048828 C23.4723119,26.5795898 24.2319799,26.5148437 25.0022924,26.5148437 L25.0022924,6.23867187 C24.543015,5.56914062 24.0116674,4.91962891 23.3951635,4.30302734 Z" id="Shape-Copy" fill="#7ED321"></path>
                    <path d="M13.1838867,33.5250977 C5.8734375,33.7646484 0,39.7863281 0,47.1539062 C0,48.4091797 1.01757812,49.4266602 2.27275391,49.4266602 L25,49.4266602 L25,26.6994141 C24.2296875,26.6994141 23.4700195,26.7640625 22.7272461,26.8893555 C18.7291016,27.5629883 15.2206055,29.9902344 13.1838867,33.5250977 Z" id="Shape" fill="#48AEE2"></path>
                    <path d="M38.1838867,33.4858398 C30.8734375,33.7253906 25,39.7470703 25,47.1146484 C25,48.3699219 26.0175781,49.3874023 27.2727539,49.3874023 L50,49.3874023 L50,26.6601562 C49.2296875,26.6601562 48.4700195,26.7248047 47.7272461,26.8500977 C43.7291016,27.5237305 40.2206055,29.9509766 38.1838867,33.4858398 Z" id="Shape-Copy-2" fill="#8DC3E9" transform="translate(37.500000, 38.023779) scale(-1, 1) translate(-37.500000, -38.023779) "></path>
                </g>
                <text id="AGRI" font-family="PingFangTC-Semibold, PingFang TC" font-size="14" font-weight="500" fill="#4A4A4A">
                    <tspan x="262" y="130">AGRI</tspan>
                </text>
            </g>
        </g>
    </g>
</svg>